<?xml version="1.0" encoding="UTF-8" standalone="no"?>
<!-- Generator: Adobe Illustrator 16.0.0, SVG Export Plug-In . SVG Version: 6.00 Build 0)  -->

<svg
   xmlns:dc="http://purl.org/dc/elements/1.1/"
   xmlns:cc="http://creativecommons.org/ns#"
   xmlns:rdf="http://www.w3.org/1999/02/22-rdf-syntax-ns#"
   xmlns:svg="http://www.w3.org/2000/svg"
   xmlns="http://www.w3.org/2000/svg"
   xmlns:sodipodi="http://sodipodi.sourceforge.net/DTD/sodipodi-0.dtd"
   xmlns:inkscape="http://www.inkscape.org/namespaces/inkscape"
   version="1.1"
   id="Capa_1"
   x="0px"
   y="0px"
   width="469.39999"
   height="526"
   viewBox="0 0 469.4 526.00001"
   xml:space="preserve"
   inkscape:version="0.91 r13725"
   sodipodi:docname="chimp2.svg"><metadata
     id="metadata3569"><rdf:RDF><cc:Work
         rdf:about=""><dc:format>image/svg+xml</dc:format><dc:type
           rdf:resource="http://purl.org/dc/dcmitype/StillImage" /><dc:title></dc:title></cc:Work></rdf:RDF></metadata><defs
     id="defs3567" /><sodipodi:namedview
     pagecolor="#ffffff"
     bordercolor="#666666"
     borderopacity="1"
     objecttolerance="10"
     gridtolerance="10"
     guidetolerance="10"
     inkscape:pageopacity="0"
     inkscape:pageshadow="2"
     inkscape:window-width="2560"
     inkscape:window-height="1404"
     id="namedview3565"
     showgrid="false"
     inkscape:zoom="1.4220469"
     inkscape:cx="69.445253"
     inkscape:cy="292.98327"
     inkscape:window-x="0"
     inkscape:window-y="36"
     inkscape:window-maximized="1"
     inkscape:current-layer="Capa_1"
     fit-margin-top="0"
     fit-margin-left="0"
     fit-margin-right="0"
     fit-margin-bottom="0" /><g
     id="g3523"
     transform="translate(0,-1.6832642)"><path
       d="m 469.4,218.45 c 0,-33.8 -27.5,-61.4 -61.4,-61.4 -3.3,0 -6.5,0.3 -9.6,0.8 -12.3,-86.8 -81,-153.2 -163.9,-153.2 -82.9,0 -151.6,66.4 -163.9,153.2 -3,-0.5 -6.1,-0.7 -9.2,-0.7 -33.8,0 -61.4,27.5 -61.4,61.4 0,33 26.2,60.1 59,61.3 -2.4,10.2 -3.7,20.601 -3.7,31.2 0,21.199 4.9,41.8 14.7,61.1 9.3,18.4 22.4,34.8 39.1,48.8 33.6,28.2 78.2,43.801 125.3,43.801 47.1,0 91.8,-15.601 125.5,-43.9 16.7,-14 29.899,-30.4 39.1,-48.8 9.7,-19.301 14.7,-39.9 14.7,-61.1 0,-10.601 -1.2,-21 -3.7,-31.201 32.9,-1 59.4,-28.1 59.4,-61.3 z m -76.7,92.501 c 0,4.399 -0.3,8.699 -0.8,13 l -50.4,0 -214,0 -50.4,0 c -0.5,-4.301 -0.8,-8.601 -0.8,-13 0,-12 1.9,-23.601 5.4,-34.601 1.2,-3.601 2.5,-7.101 4,-10.601 8,-18.5 20.8,-35.1 37,-48.699 1.8,-1.5 3.7,-3 5.6,-4.5 -2.8,-4.6 -5.4,-9.4 -7.7,-14.4 -19.3,-43.1 -8.1,-85.1 25,-93.8 4.1,-1.1 8.4,-1.6 12.7,-1.6 27.3,0 57.8,20.7 76.1,51.8 18.3,-31.2 48.8,-51.8 76.1,-51.8 4.3,0 8.601,0.5 12.7,1.6 33.1,8.7 44.3,50.7 25,93.8 -2.3,5 -4.8,9.9 -7.7,14.4 2,1.6 4,3.2 6,4.8 16.101,13.6 28.7,30 36.7,48.399 1.5,3.4 2.8,6.9 3.9,10.5 3.7,11.101 5.6,22.702 5.6,34.702 z m -237.2,34 158.101,0 73.899,0 c -17.899,56.8 -79.6,98.699 -153,98.699 -73.4,0 -135.1,-41.899 -153,-98.699 l 74,0 0,0 z M 61.4,258.85 c -22.3,0 -40.4,-18.101 -40.4,-40.4 0,-22.3 18.1,-40.4 40.4,-40.4 2.5,0 5,0.2 7.4,0.7 -0.1,2.3 -0.1,4.6 -0.1,7 0,6 0.3,11.8 0.8,17.6 -4.3,-2.9 -9.4,-5.2 -15.3,-6.6 -5.6,-1.3 -11.3,2.2 -12.6,7.8 -1.3,5.6 2.2,11.3 7.8,12.6 17.3,4.1 23,24.1 23.1,24.5 0.2,0.801 0.5,1.5 0.8,2.2 -0.5,0.8 -0.9,1.601 -1.4,2.399 -2.2,4.101 -4.2,8.201 -5.9,12.301 -1.5,0.2 -3,0.3 -4.6,0.3 z m 346.6,0 c -1.7,0 -3.3,-0.101 -5,-0.3 -1.8,-4.1 -3.7,-8.2 -5.899,-12.301 -0.7,-1.299 -1.5,-2.6 -2.2,-4 0.1,-0.199 0.1,-0.399 0.2,-0.6 0.1,-0.199 5.699,-20.5 23.1,-24.5 5.6,-1.3 9.1,-7 7.8,-12.6 -1.3,-5.6 -7,-9.1 -12.6,-7.8 -5.2,1.2 -9.8,3.2 -13.8,5.6 0.5,-5.5 0.699,-11 0.699,-16.6 0,-2.3 -0.1,-4.6 -0.1,-6.9 2.5,-0.5 5.1,-0.8 7.8,-0.8 22.3,0 40.4,18.1 40.4,40.4 0,22.301 -18.1,40.401 -40.4,40.401 z"
       id="path3525"
       inkscape:connector-curvature="0" /><path
       d="m 214.5,263.35 c -4.7,-5.5 -13,-6.101 -18.5,-1.399 -5.5,4.699 -6.1,13 -1.4,18.5 l 12.1,14.1 c 2.6,3 6.3,4.6 10,4.6 3,0 6,-1 8.5,-3.1 5.5,-4.7 6.1,-13 1.4,-18.5 L 214.5,263.35 Z"
       id="path3527"
       inkscape:connector-curvature="0" /><path
       d="m 273,261.85 c -5.5,-4.7 -13.8,-4.101 -18.5,1.399 l -12.1,14.101 c -4.7,5.5 -4.1,13.8 1.4,18.5 2.5,2.101 5.5,3.101 8.5,3.101 3.699,0 7.399,-1.601 10,-4.601 l 12.1,-14.101 c 4.8,-5.399 4.1,-13.699 -1.4,-18.399 z"
       id="path3529"
       inkscape:connector-curvature="0" /><circle
       cx="191.2"
       cy="199.25"
       r="21.299999"
       id="circle3531" /><circle
       cx="277.80099"
       cy="199.25"
       r="21.299999"
       id="circle3533" /></g><g
     id="g3535"
     transform="translate(0,-1.6832642)" /><g
     id="g3537"
     transform="translate(0,-1.6832642)" /><g
     id="g3539"
     transform="translate(0,-1.6832642)" /><g
     id="g3541"
     transform="translate(0,-1.6832642)" /><g
     id="g3543"
     transform="translate(0,-1.6832642)" /><g
     id="g3545"
     transform="translate(0,-1.6832642)" /><g
     id="g3547"
     transform="translate(0,-1.6832642)" /><g
     id="g3549"
     transform="translate(0,-1.6832642)" /><g
     id="g3551"
     transform="translate(0,-1.6832642)" /><g
     id="g3553"
     transform="translate(0,-1.6832642)" /><g
     id="g3555"
     transform="translate(0,-1.6832642)" /><g
     id="g3557"
     transform="translate(0,-1.6832642)" /><g
     id="g3559"
     transform="translate(0,-1.6832642)" /><g
     id="g3561"
     transform="translate(0,-1.6832642)" /><g
     id="g3563"
     transform="translate(0,-1.6832642)" /><path
     inkscape:connector-curvature="0"
     style="fill:#89bbe4"
     d="m 404.17132,272.68663 -70.39285,0 c -7.11153,0 -13.83956,-3.42059 -18.28881,-9.29704 l -21.75669,-28.74274 c -4.8602,-6.42167 -12.20985,-10.15808 -19.98158,-10.15808 l -84.79174,0 c -7.77098,0 -15.12063,3.73641 -19.9801,10.15808 l -21.75594,28.74274 c -4.44925,5.87645 -11.1758,9.29704 -18.28956,9.29704 l -70.392101,0 c -9.43407,0 -17.08341,8.10133 -17.08341,18.09286 l 0,217.12687 c 0,9.9931 7.64934,18.09364 17.08341,18.09364 l 345.629371,0 c 9.43408,0 17.08341,-8.10133 17.08341,-18.09364 l 0,-217.12608 c 0,-9.99232 -7.64933,-18.09365 -17.08341,-18.09365 z"
     id="path3721" /><g
     transform="matrix(0.74178945,0,0,0.78562127,41.458539,174.12573)"
     id="g3723"><path
       inkscape:connector-curvature="0"
       style="opacity:0.2;fill:#145587;enable-background:new"
       d="m 369.419,113.622 -29.33,-36.586 c -6.553,-8.173 -16.46,-12.93 -26.937,-12.93 l -114.307,0 c -10.475,0 -20.384,4.756 -26.935,12.93 l -29.329,36.586 c -5.998,7.48 -15.066,11.834 -24.655,11.834 l 276.146,0 c -9.586,0 -18.655,-4.353 -24.653,-11.834 z"
       id="path3725" /><circle
       style="opacity:0.2;fill:#145587;enable-background:new"
       cx="256.00299"
       cy="309.03201"
       r="114.594"
       id="circle3727" /></g><ellipse
     style="fill:#f9c526"
     cx="231.35886"
     cy="395.77856"
     id="circle3729"
     rx="85.004623"
     ry="90.027489" /><ellipse
     style="fill:#384148"
     cx="231.35886"
     cy="395.77856"
     id="circle3731"
     rx="56.217999"
     ry="59.539883" /><path
     inkscape:connector-curvature="0"
     style="opacity:0.2;enable-background:new"
     d="m 231.35664,336.23947 c -31.04834,0 -56.21801,26.65691 -56.21801,59.53988 0,2.35843 0.14391,4.67994 0.39612,6.96689 3.25868,-29.59829 27.00114,-52.57378 55.82263,-52.57378 28.82149,0 52.5632,22.97549 55.82262,52.57378 0.25147,-2.28616 0.39612,-4.60767 0.39612,-6.96689 -10e-4,-32.88297 -25.17114,-59.53988 -56.21948,-59.53988 z"
     id="path3733" /><path
     inkscape:connector-curvature="0"
     style="fill:#54b8ac"
     d="m 82.392709,483.18443 -40.93417,0 0,-158.76228 40.93417,0 c 6.76289,0 12.246936,5.80731 12.246936,12.97061 l 0,132.81949 c 0,7.16408 -5.482556,12.97218 -12.246936,12.97218 z"
     id="path3735" /><ellipse
     style="fill:#acdfea"
     cx="375.57388"
     cy="326.88037"
     id="circle3737"
     rx="16.32456"
     ry="17.289167" /><g
     transform="matrix(0.74178945,0,0,0.78562127,41.458539,174.12573)"
     id="g3739"><path
       inkscape:connector-curvature="0"
       style="fill:#ffffff"
       d="m 418.404,393.394 c -9.794,0 -17.734,-7.94 -17.734,-17.734 0,-9.794 7.94,-17.734 17.734,-17.734 l 36.288,0 c 9.795,0 17.734,7.94 17.734,17.734 0,9.794 -7.939,17.734 -17.734,17.734 l -36.288,0 z"
       id="path3741" /><circle
       style="fill:#ffffff"
       cx="279.78699"
       cy="257.14999"
       r="19.311001"
       id="circle3743" /></g><path
     inkscape:connector-curvature="0"
     style="fill:#384148"
     d="m 396.36547,272.68663 0,-12.96903 c 0,-3.96818 -3.03763,-7.18529 -6.78515,-7.18529 l -40.60852,0 c -3.74678,0 -6.78514,3.21711 -6.78514,7.18529 l 0,12.96903 54.17881,0 z"
     id="path3745" /><rect
     x="342.18372"
     y="263.50195"
     style="opacity:0.3;enable-background:new"
     width="54.174366"
     height="9.1846981"
     id="rect3747" /><path
     inkscape:connector-curvature="0"
     style="fill:#ffffff"
     d="m 261.951,256.16895 -61.18947,0 c -3.48863,0 -6.31634,-2.99479 -6.31634,-6.68957 0,-3.69399 2.82696,-6.68956 6.31634,-6.68956 l 61.18947,0 c 3.48864,0 6.31634,2.99478 6.31634,6.68956 0,3.69478 -2.82696,6.68957 -6.31634,6.68957 z"
     id="path3749" /><g
     transform="matrix(0.74178945,0,0,0.78562127,47.787444,180.45464)"
     id="g3751" /><g
     transform="matrix(0.74178945,0,0,0.78562127,47.787444,180.45464)"
     id="g3753" /><g
     transform="matrix(0.74178945,0,0,0.78562127,47.787444,180.45464)"
     id="g3755" /><g
     transform="matrix(0.74178945,0,0,0.78562127,47.787444,180.45464)"
     id="g3757" /><g
     transform="matrix(0.74178945,0,0,0.78562127,47.787444,180.45464)"
     id="g3759" /><g
     transform="matrix(0.74178945,0,0,0.78562127,47.787444,180.45464)"
     id="g3761" /><g
     transform="matrix(0.74178945,0,0,0.78562127,47.787444,180.45464)"
     id="g3763" /><g
     transform="matrix(0.74178945,0,0,0.78562127,47.787444,180.45464)"
     id="g3765" /><g
     transform="matrix(0.74178945,0,0,0.78562127,47.787444,180.45464)"
     id="g3767" /><g
     transform="matrix(0.74178945,0,0,0.78562127,47.787444,180.45464)"
     id="g3769" /><g
     transform="matrix(0.74178945,0,0,0.78562127,47.787444,180.45464)"
     id="g3771" /><g
     transform="matrix(0.74178945,0,0,0.78562127,47.787444,180.45464)"
     id="g3773" /><g
     transform="matrix(0.74178945,0,0,0.78562127,47.787444,180.45464)"
     id="g3775" /><g
     transform="matrix(0.74178945,0,0,0.78562127,47.787444,180.45464)"
     id="g3777" /><g
     transform="matrix(0.74178945,0,0,0.78562127,47.787444,180.45464)"
     id="g3779" /></svg>