<?xml version="1.0" encoding="UTF-8" standalone="no"?>
<!-- Generator: Adobe Illustrator 16.0.0, SVG Export Plug-In . SVG Version: 6.00 Build 0)  -->

<svg
   xmlns:dc="http://purl.org/dc/elements/1.1/"
   xmlns:cc="http://creativecommons.org/ns#"
   xmlns:rdf="http://www.w3.org/1999/02/22-rdf-syntax-ns#"
   xmlns:svg="http://www.w3.org/2000/svg"
   xmlns="http://www.w3.org/2000/svg"
   xmlns:sodipodi="http://sodipodi.sourceforge.net/DTD/sodipodi-0.dtd"
   xmlns:inkscape="http://www.inkscape.org/namespaces/inkscape"
   version="1.1"
   id="Capa_1"
   x="0px"
   y="0px"
   width="469.39999"
   height="526"
   viewBox="0 0 469.4 526.00001"
   xml:space="preserve"
   inkscape:version="0.91 r13725"
   sodipodi:docname="chimp3.svg"><metadata
     id="metadata4078"><rdf:RDF><cc:Work
         rdf:about=""><dc:format>image/svg+xml</dc:format><dc:type
           rdf:resource="http://purl.org/dc/dcmitype/StillImage" /><dc:title></dc:title></cc:Work></rdf:RDF></metadata><defs
     id="defs4076" /><sodipodi:namedview
     pagecolor="#ffffff"
     bordercolor="#666666"
     borderopacity="1"
     objecttolerance="10"
     gridtolerance="10"
     guidetolerance="10"
     inkscape:pageopacity="0"
     inkscape:pageshadow="2"
     inkscape:window-width="2560"
     inkscape:window-height="1404"
     id="namedview4074"
     showgrid="false"
     inkscape:zoom="1.4220469"
     inkscape:cx="77.567625"
     inkscape:cy="391.18543"
     inkscape:window-x="0"
     inkscape:window-y="36"
     inkscape:window-maximized="1"
     inkscape:current-layer="Capa_1"
     fit-margin-top="0"
     fit-margin-left="0"
     fit-margin-right="0"
     fit-margin-bottom="3" /><g
     id="g4032"
     transform="translate(0,-2.1064819)"><path
       d="m 469.4,218.45 c 0,-33.8 -27.5,-61.4 -61.4,-61.4 -3.3,0 -6.5,0.3 -9.6,0.8 -12.3,-86.8 -81,-153.2 -163.9,-153.2 -82.9,0 -151.6,66.4 -163.9,153.2 -3,-0.5 -6.1,-0.7 -9.2,-0.7 -33.8,0 -61.4,27.5 -61.4,61.4 0,33 26.2,60.1 59,61.3 -2.4,10.2 -3.7,20.601 -3.7,31.2 0,21.199 4.9,41.8 14.7,61.1 9.3,18.4 22.4,34.8 39.1,48.8 33.6,28.2 78.2,43.801 125.3,43.801 47.1,0 91.8,-15.601 125.5,-43.9 16.7,-14 29.899,-30.4 39.1,-48.8 9.7,-19.301 14.7,-39.9 14.7,-61.1 0,-10.601 -1.2,-21 -3.7,-31.201 32.9,-1 59.4,-28.1 59.4,-61.3 z m -76.7,92.501 c 0,4.399 -0.3,8.699 -0.8,13 l -50.4,0 -214,0 -50.4,0 c -0.5,-4.301 -0.8,-8.601 -0.8,-13 0,-12 1.9,-23.601 5.4,-34.601 1.2,-3.601 2.5,-7.101 4,-10.601 8,-18.5 20.8,-35.1 37,-48.699 1.8,-1.5 3.7,-3 5.6,-4.5 -2.8,-4.6 -5.4,-9.4 -7.7,-14.4 -19.3,-43.1 -8.1,-85.1 25,-93.8 4.1,-1.1 8.4,-1.6 12.7,-1.6 27.3,0 57.8,20.7 76.1,51.8 18.3,-31.2 48.8,-51.8 76.1,-51.8 4.3,0 8.601,0.5 12.7,1.6 33.1,8.7 44.3,50.7 25,93.8 -2.3,5 -4.8,9.9 -7.7,14.4 2,1.6 4,3.2 6,4.8 16.101,13.6 28.7,30 36.7,48.399 1.5,3.4 2.8,6.9 3.9,10.5 3.7,11.101 5.6,22.702 5.6,34.702 z m -237.2,34 158.101,0 73.899,0 c -17.899,56.8 -79.6,98.699 -153,98.699 -73.4,0 -135.1,-41.899 -153,-98.699 l 74,0 0,0 z M 61.4,258.85 c -22.3,0 -40.4,-18.101 -40.4,-40.4 0,-22.3 18.1,-40.4 40.4,-40.4 2.5,0 5,0.2 7.4,0.7 -0.1,2.3 -0.1,4.6 -0.1,7 0,6 0.3,11.8 0.8,17.6 -4.3,-2.9 -9.4,-5.2 -15.3,-6.6 -5.6,-1.3 -11.3,2.2 -12.6,7.8 -1.3,5.6 2.2,11.3 7.8,12.6 17.3,4.1 23,24.1 23.1,24.5 0.2,0.801 0.5,1.5 0.8,2.2 -0.5,0.8 -0.9,1.601 -1.4,2.399 -2.2,4.101 -4.2,8.201 -5.9,12.301 -1.5,0.2 -3,0.3 -4.6,0.3 z m 346.6,0 c -1.7,0 -3.3,-0.101 -5,-0.3 -1.8,-4.1 -3.7,-8.2 -5.899,-12.301 -0.7,-1.299 -1.5,-2.6 -2.2,-4 0.1,-0.199 0.1,-0.399 0.2,-0.6 0.1,-0.199 5.699,-20.5 23.1,-24.5 5.6,-1.3 9.1,-7 7.8,-12.6 -1.3,-5.6 -7,-9.1 -12.6,-7.8 -5.2,1.2 -9.8,3.2 -13.8,5.6 0.5,-5.5 0.699,-11 0.699,-16.6 0,-2.3 -0.1,-4.6 -0.1,-6.9 2.5,-0.5 5.1,-0.8 7.8,-0.8 22.3,0 40.4,18.1 40.4,40.4 0,22.301 -18.1,40.401 -40.4,40.401 z"
       id="path4034"
       inkscape:connector-curvature="0" /><path
       d="m 214.5,263.35 c -4.7,-5.5 -13,-6.101 -18.5,-1.399 -5.5,4.699 -6.1,13 -1.4,18.5 l 12.1,14.1 c 2.6,3 6.3,4.6 10,4.6 3,0 6,-1 8.5,-3.1 5.5,-4.7 6.1,-13 1.4,-18.5 L 214.5,263.35 Z"
       id="path4036"
       inkscape:connector-curvature="0" /><path
       d="m 273,261.85 c -5.5,-4.7 -13.8,-4.101 -18.5,1.399 l -12.1,14.101 c -4.7,5.5 -4.1,13.8 1.4,18.5 2.5,2.101 5.5,3.101 8.5,3.101 3.699,0 7.399,-1.601 10,-4.601 l 12.1,-14.101 c 4.8,-5.399 4.1,-13.699 -1.4,-18.399 z"
       id="path4038"
       inkscape:connector-curvature="0" /><circle
       cx="191.2"
       cy="199.25"
       r="21.299999"
       id="circle4040" /><circle
       cx="277.80099"
       cy="199.25"
       r="21.299999"
       id="circle4042" /></g><g
     id="g4044"
     transform="translate(0,-2.1064819)" /><g
     id="g4046"
     transform="translate(0,-2.1064819)" /><g
     id="g4048"
     transform="translate(0,-2.1064819)" /><g
     id="g4050"
     transform="translate(0,-2.1064819)" /><g
     id="g4052"
     transform="translate(0,-2.1064819)" /><g
     id="g4054"
     transform="translate(0,-2.1064819)" /><g
     id="g4056"
     transform="translate(0,-2.1064819)" /><g
     id="g4058"
     transform="translate(0,-2.1064819)" /><g
     id="g4060"
     transform="translate(0,-2.1064819)" /><g
     id="g4062"
     transform="translate(0,-2.1064819)" /><g
     id="g4064"
     transform="translate(0,-2.1064819)" /><g
     id="g4066"
     transform="translate(0,-2.1064819)" /><g
     id="g4068"
     transform="translate(0,-2.1064819)" /><g
     id="g4070"
     transform="translate(0,-2.1064819)" /><g
     id="g4072"
     transform="translate(0,-2.1064819)" /><path
     inkscape:connector-curvature="0"
     style="fill:#104c75"
     d="m 386.44946,463.77221 c 0,27.89141 -27.12537,50.49198 -60.57552,50.49198 l -248.382578,0 c -33.467871,0 -60.575515,-22.60572 -60.575515,-50.49198 l 0,-116.11351 c 0,-27.88179 27.113037,-50.48235 60.575515,-50.48235 l 248.382578,0 c 33.45632,0 60.57552,22.60571 60.57552,50.48235 l 0,116.11351 z"
     id="path4591" /><g
     transform="matrix(0.77844939,0,0,0.64830705,5.9418625,208.60801)"
     id="g4593"><path
       inkscape:connector-curvature="0"
       style="fill:#00233f"
       d="m 152.403,136.066 270.431,0 c 36.431,0 65.969,35.202 65.969,78.612 l 0,217.71 c 0,43.433 -29.538,41.74 -65.969,41.74 l -270.431,0"
       id="path4595" /><path
       inkscape:connector-curvature="0"
       style="fill:#00233f"
       d="m 126.818,421.526 c 0,35.013 -28.388,63.417 -63.401,63.417 l 0,0 C 3.805,484.943 0,456.546 0,421.526 L 0,188.668 c 0,-35.029 9.956,-63.401 44.969,-63.401 l 18.448,0 c 35.013,0 63.401,28.373 63.401,63.401 l 0,232.858 z"
       id="path4597" /></g><g
     transform="matrix(0.6570876,0,0,0.634574,7.023207,212.11124)"
     id="g4599"><path
       inkscape:connector-curvature="0"
       style="fill:#1f759b"
       d="m 38.636,170.22 c 0,3.505 -2.844,6.341 -6.357,6.341 l 0,0 c -3.489,0 -6.341,-2.828 -6.341,-6.341 l 0,0 c 0,-3.505 2.844,-6.341 6.341,-6.341 l 0,0 c 3.514,0 6.357,2.836 6.357,6.341 l 0,0 z"
       id="path4601" /><path
       inkscape:connector-curvature="0"
       style="fill:#1f759b"
       d="m 69.758,170.22 c 0,3.505 -2.844,6.341 -6.341,6.341 l 0,0 c -3.505,0 -6.357,-2.828 -6.357,-6.341 l 0,0 c 0,-3.505 2.844,-6.341 6.357,-6.341 l 0,0 c 3.497,0 6.341,2.836 6.341,6.341 l 0,0 z"
       id="path4603" /><path
       inkscape:connector-curvature="0"
       style="fill:#1f759b"
       d="m 100.88,170.22 c 0,3.505 -2.828,6.341 -6.341,6.341 l 0,0 c -3.505,0 -6.341,-2.828 -6.341,-6.341 l 0,0 c 0,-3.505 2.828,-6.341 6.341,-6.341 l 0,0 c 3.513,0 6.341,2.836 6.341,6.341 l 0,0 z"
       id="path4605" /><path
       inkscape:connector-curvature="0"
       style="fill:#1f759b"
       d="m 38.636,200.192 c 0,3.505 -2.844,6.341 -6.357,6.341 l 0,0 c -3.489,0 -6.341,-2.828 -6.341,-6.341 l 0,0 c 0,-3.505 2.844,-6.341 6.341,-6.341 l 0,0 c 3.514,0 6.357,2.828 6.357,6.341 l 0,0 z"
       id="path4607" /><path
       inkscape:connector-curvature="0"
       style="fill:#1f759b"
       d="m 69.758,200.192 c 0,3.505 -2.844,6.341 -6.341,6.341 l 0,0 c -3.505,0 -6.357,-2.828 -6.357,-6.341 l 0,0 c 0,-3.505 2.844,-6.341 6.357,-6.341 l 0,0 c 3.497,0 6.341,2.828 6.341,6.341 l 0,0 z"
       id="path4609" /><path
       inkscape:connector-curvature="0"
       style="fill:#1f759b"
       d="m 100.88,200.192 c 0,3.505 -2.828,6.341 -6.341,6.341 l 0,0 c -3.505,0 -6.341,-2.828 -6.341,-6.341 l 0,0 c 0,-3.505 2.828,-6.341 6.341,-6.341 l 0,0 c 3.513,0 6.341,2.828 6.341,6.341 l 0,0 z"
       id="path4611" /><path
       inkscape:connector-curvature="0"
       style="fill:#1f759b"
       d="m 38.636,230.156 c 0,3.505 -2.844,6.341 -6.357,6.341 l 0,0 c -3.489,0 -6.341,-2.828 -6.341,-6.341 l 0,0 c 0,-3.505 2.844,-6.341 6.341,-6.341 l 0,0 c 3.514,0.008 6.357,2.836 6.357,6.341 l 0,0 z"
       id="path4613" /><path
       inkscape:connector-curvature="0"
       style="fill:#1f759b"
       d="m 69.758,230.156 c 0,3.505 -2.844,6.341 -6.341,6.341 l 0,0 c -3.505,0 -6.357,-2.828 -6.357,-6.341 l 0,0 c 0,-3.505 2.844,-6.341 6.357,-6.341 l 0,0 c 3.497,0.008 6.341,2.836 6.341,6.341 l 0,0 z"
       id="path4615" /><path
       inkscape:connector-curvature="0"
       style="fill:#1f759b"
       d="m 100.88,230.156 c 0,3.505 -2.828,6.341 -6.341,6.341 l 0,0 c -3.505,0 -6.341,-2.828 -6.341,-6.341 l 0,0 c 0,-3.505 2.828,-6.341 6.341,-6.341 l 0,0 c 3.513,0.008 6.341,2.836 6.341,6.341 l 0,0 z"
       id="path4617" /><path
       inkscape:connector-curvature="0"
       style="fill:#1f759b"
       d="m 38.636,260.128 c 0,3.505 -2.844,6.357 -6.357,6.357 l 0,0 c -3.489,0 -6.341,-2.844 -6.341,-6.357 l 0,0 c 0,-3.49 2.844,-6.325 6.341,-6.325 l 0,0 c 3.514,-0.001 6.357,2.835 6.357,6.325 l 0,0 z"
       id="path4619" /><path
       inkscape:connector-curvature="0"
       style="fill:#1f759b"
       d="m 69.758,260.128 c 0,3.505 -2.844,6.357 -6.341,6.357 l 0,0 c -3.505,0 -6.357,-2.844 -6.357,-6.357 l 0,0 c 0,-3.49 2.844,-6.325 6.357,-6.325 l 0,0 c 3.497,-0.001 6.341,2.835 6.341,6.325 l 0,0 z"
       id="path4621" /><path
       inkscape:connector-curvature="0"
       style="fill:#1f759b"
       d="m 100.88,260.128 c 0,3.505 -2.828,6.357 -6.341,6.357 l 0,0 c -3.505,0 -6.341,-2.844 -6.341,-6.357 l 0,0 c 0,-3.49 2.828,-6.325 6.341,-6.325 l 0,0 c 3.513,-0.001 6.341,2.835 6.341,6.325 l 0,0 z"
       id="path4623" /><path
       inkscape:connector-curvature="0"
       style="fill:#1f759b"
       d="m 38.636,290.099 c 0,3.505 -2.844,6.357 -6.357,6.357 l 0,0 c -3.489,0 -6.341,-2.844 -6.341,-6.357 l 0,0 c 0,-3.489 2.844,-6.341 6.341,-6.341 l 0,0 c 3.514,0 6.357,2.844 6.357,6.341 l 0,0 z"
       id="path4625" /><path
       inkscape:connector-curvature="0"
       style="fill:#1f759b"
       d="m 69.758,290.099 c 0,3.505 -2.844,6.357 -6.341,6.357 l 0,0 c -3.505,0 -6.357,-2.844 -6.357,-6.357 l 0,0 c 0,-3.489 2.844,-6.341 6.357,-6.341 l 0,0 c 3.497,0 6.341,2.844 6.341,6.341 l 0,0 z"
       id="path4627" /><path
       inkscape:connector-curvature="0"
       style="fill:#1f759b"
       d="m 100.88,290.099 c 0,3.505 -2.828,6.357 -6.341,6.357 l 0,0 c -3.505,0 -6.341,-2.844 -6.341,-6.357 l 0,0 c 0,-3.489 2.828,-6.341 6.341,-6.341 l 0,0 c 3.513,0 6.341,2.844 6.341,6.341 l 0,0 z"
       id="path4629" /><path
       inkscape:connector-curvature="0"
       style="fill:#1f759b"
       d="m 38.636,320.079 c 0,3.505 -2.844,6.341 -6.357,6.341 l 0,0 c -3.489,0 -6.341,-2.828 -6.341,-6.341 l 0,0 c 0,-3.505 2.844,-6.341 6.341,-6.341 l 0,0 c 3.514,0.008 6.357,2.836 6.357,6.341 l 0,0 z"
       id="path4631" /><path
       inkscape:connector-curvature="0"
       style="fill:#1f759b"
       d="m 69.758,320.079 c 0,3.505 -2.844,6.341 -6.341,6.341 l 0,0 c -3.505,0 -6.357,-2.828 -6.357,-6.341 l 0,0 c 0,-3.505 2.844,-6.341 6.357,-6.341 l 0,0 c 3.497,0.008 6.341,2.836 6.341,6.341 l 0,0 z"
       id="path4633" /><path
       inkscape:connector-curvature="0"
       style="fill:#1f759b"
       d="m 100.88,320.079 c 0,3.505 -2.828,6.341 -6.341,6.341 l 0,0 c -3.505,0 -6.341,-2.828 -6.341,-6.341 l 0,0 c 0,-3.505 2.828,-6.341 6.341,-6.341 l 0,0 c 3.513,0.008 6.341,2.836 6.341,6.341 l 0,0 z"
       id="path4635" /><path
       inkscape:connector-curvature="0"
       style="fill:#1f759b"
       d="m 38.636,350.05 c 0,3.505 -2.844,6.357 -6.357,6.357 l 0,0 c -3.489,0 -6.341,-2.844 -6.341,-6.357 l 0,0 c 0,-3.489 2.844,-6.341 6.341,-6.341 l 0,0 c 3.514,10e-4 6.357,2.852 6.357,6.341 l 0,0 z"
       id="path4637" /><path
       inkscape:connector-curvature="0"
       style="fill:#1f759b"
       d="m 69.758,350.05 c 0,3.505 -2.844,6.357 -6.341,6.357 l 0,0 c -3.505,0 -6.357,-2.844 -6.357,-6.357 l 0,0 c 0,-3.489 2.844,-6.341 6.357,-6.341 l 0,0 c 3.497,10e-4 6.341,2.852 6.341,6.341 l 0,0 z"
       id="path4639" /><path
       inkscape:connector-curvature="0"
       style="fill:#1f759b"
       d="m 100.88,350.05 c 0,3.505 -2.828,6.357 -6.341,6.357 l 0,0 c -3.505,0 -6.341,-2.844 -6.341,-6.357 l 0,0 c 0,-3.489 2.828,-6.341 6.341,-6.341 l 0,0 c 3.513,10e-4 6.341,2.852 6.341,6.341 l 0,0 z"
       id="path4641" /><path
       inkscape:connector-curvature="0"
       style="fill:#1f759b"
       d="m 38.636,380.022 c 0,3.505 -2.844,6.341 -6.357,6.341 l 0,0 c -3.489,0 -6.341,-2.828 -6.341,-6.341 l 0,0 c 0,-3.49 2.844,-6.341 6.341,-6.341 l 0,0 c 3.514,0 6.357,2.844 6.357,6.341 l 0,0 z"
       id="path4643" /><path
       inkscape:connector-curvature="0"
       style="fill:#1f759b"
       d="m 69.758,380.022 c 0,3.505 -2.844,6.341 -6.341,6.341 l 0,0 c -3.505,0 -6.357,-2.828 -6.357,-6.341 l 0,0 c 0,-3.49 2.844,-6.341 6.357,-6.341 l 0,0 c 3.497,0 6.341,2.844 6.341,6.341 l 0,0 z"
       id="path4645" /><path
       inkscape:connector-curvature="0"
       style="fill:#1f759b"
       d="m 100.88,380.022 c 0,3.505 -2.828,6.341 -6.341,6.341 l 0,0 c -3.505,0 -6.341,-2.828 -6.341,-6.341 l 0,0 c 0,-3.49 2.828,-6.341 6.341,-6.341 l 0,0 c 3.513,0 6.341,2.844 6.341,6.341 l 0,0 z"
       id="path4647" /><path
       inkscape:connector-curvature="0"
       style="fill:#1f759b"
       d="m 38.636,410.002 c 0,3.49 -2.844,6.341 -6.357,6.341 l 0,0 c -3.489,0 -6.341,-2.844 -6.341,-6.341 l 0,0 c 0,-3.505 2.844,-6.357 6.341,-6.357 l 0,0 c 3.514,0.008 6.357,2.851 6.357,6.357 l 0,0 z"
       id="path4649" /><path
       inkscape:connector-curvature="0"
       style="fill:#1f759b"
       d="m 69.758,410.002 c 0,3.49 -2.844,6.341 -6.341,6.341 l 0,0 c -3.505,0 -6.357,-2.844 -6.357,-6.341 l 0,0 c 0,-3.505 2.844,-6.357 6.357,-6.357 l 0,0 c 3.497,0.008 6.341,2.851 6.341,6.357 l 0,0 z"
       id="path4651" /><path
       inkscape:connector-curvature="0"
       style="fill:#1f759b"
       d="m 100.88,410.002 c 0,3.49 -2.828,6.341 -6.341,6.341 l 0,0 c -3.505,0 -6.341,-2.844 -6.341,-6.341 l 0,0 c 0,-3.505 2.828,-6.357 6.341,-6.357 l 0,0 c 3.513,0.008 6.341,2.851 6.341,6.357 l 0,0 z"
       id="path4653" /><path
       inkscape:connector-curvature="0"
       style="fill:#1f759b"
       d="m 38.636,439.973 c 0,3.505 -2.844,6.341 -6.357,6.341 l 0,0 c -3.489,0 -6.341,-2.828 -6.341,-6.341 l 0,0 c 0,-3.505 2.844,-6.341 6.341,-6.341 l 0,0 c 3.514,0 6.357,2.836 6.357,6.341 l 0,0 z"
       id="path4655" /><path
       inkscape:connector-curvature="0"
       style="fill:#1f759b"
       d="m 69.758,439.973 c 0,3.505 -2.844,6.341 -6.341,6.341 l 0,0 c -3.505,0 -6.357,-2.828 -6.357,-6.341 l 0,0 c 0,-3.505 2.844,-6.341 6.357,-6.341 l 0,0 c 3.497,0 6.341,2.836 6.341,6.341 l 0,0 z"
       id="path4657" /><path
       inkscape:connector-curvature="0"
       style="fill:#1f759b"
       d="m 100.88,439.973 c 0,3.505 -2.828,6.341 -6.341,6.341 l 0,0 c -3.505,0 -6.341,-2.828 -6.341,-6.341 l 0,0 c 0,-3.505 2.828,-6.341 6.341,-6.341 l 0,0 c 3.513,0 6.341,2.836 6.341,6.341 l 0,0 z"
       id="path4659" /></g><path
     inkscape:connector-curvature="0"
     style="fill:#003589"
     d="m 339.91875,412.23869 c 0,47.24674 -45.40544,85.53277 -101.42344,85.53277 -56.0301,0 -101.43635,-38.29147 -101.43635,-85.53277 0,-47.25152 45.40545,-85.54368 101.43635,-85.54368 56.018,0 101.42344,38.29149 101.42344,85.54368 z"
     id="path4661" /><g
     transform="matrix(0.8072222,0,0,0.6807496,-8.1223712,204.54403)"
     id="g4663"><path
       inkscape:connector-curvature="0"
       style="fill:#085bbf"
       d="m 216.655,216.237 c 49.073,-49.065 128.63,-49.073 177.711,0 49.081,49.073 49.073,128.63 0,177.719"
       id="path4665" /><circle
       style="fill:#085bbf"
       cx="305.53"
       cy="305.05701"
       r="86.464996"
       id="circle4667" /></g><path
     inkscape:connector-curvature="0"
     style="fill:#177add"
     d="m 238.49531,353.38312 c 38.53841,0 69.78356,26.34977 69.78356,58.86102 0,32.51123 -31.24515,58.861 -69.78356,58.861"
     id="path4669" /><ellipse
     style="fill:#13d1ba"
     cx="238.50822"
     cy="412.21146"
     id="circle4671"
     rx="44.826664"
     ry="37.803387" /><path
     inkscape:connector-curvature="0"
     style="fill:#0faaa6"
     d="m 193.68802,412.23869 c 0,-20.87519 20.05463,-37.78774 44.8081,-37.78774 24.74055,0 44.79518,16.91255 44.79518,37.78774"
     id="path4673" /><g
     transform="matrix(0.8072222,0,0,0.6807496,-8.1223712,204.54403)"
     style="opacity:0.6"
     id="g4675"><circle
       style="fill:#13d1ba"
       cx="305.53"
       cy="305.05701"
       r="55.532001"
       id="circle4677" /><path
       inkscape:connector-curvature="0"
       style="fill:#0faaa6"
       d="m 266.248,344.348 c -21.677,-21.677 -21.677,-56.832 0,-78.509 21.677,-21.662 56.832,-21.662 78.509,0"
       id="path4679" /></g><path
     inkscape:connector-curvature="0"
     style="fill:#177add"
     d="m 161.24738,321.10265 c 0,1.94626 -1.87599,3.52832 -4.18383,3.52832 l -21.39624,0 c -2.30784,0 -4.19674,-1.58206 -4.19674,-3.52832 l 0,0 c 0,-1.94626 1.88809,-3.52832 4.19674,-3.52832 l 21.39624,0 c 2.30784,0 4.18383,1.58138 4.18383,3.52832 l 0,0 z"
     id="path4681" /><ellipse
     style="fill:#c63205"
     cx="345.52087"
     cy="333.27444"
     id="circle4683"
     rx="11.165497"
     ry="9.4161282" /><path
     inkscape:connector-curvature="0"
     style="fill:#00233f"
     d="m 286.35552,295.73929 c 0,8.30582 -7.99877,15.04115 -17.83558,15.04115 l -60.05571,0 c -9.84892,0 -17.84849,-6.73465 -17.84849,-15.04115 l 0,-18.06506 c 0,-8.29561 7.99876,-15.03027 17.84849,-15.03027 l 60.05571,0 c 9.83681,0 17.83558,6.73466 17.83558,15.03027 l 0,18.06506 z"
     id="path4685" /><g
     transform="matrix(0.8072222,0,0,0.6807496,-8.1223712,204.54403)"
     id="g4687"><circle
       style="fill:#f0fffd"
       cx="283.22299"
       cy="282.45099"
       r="18.062"
       id="circle4689" /><circle
       style="fill:#f0fffd"
       cx="320.89001"
       cy="317.05399"
       r="2.6860001"
       id="circle4691" /><circle
       style="fill:#f0fffd"
       cx="336.25"
       cy="334.746"
       r="7.3099999"
       id="circle4693" /></g><g
     transform="matrix(0.8072222,0,0,0.6807496,-8.1223712,204.54403)"
     id="g4695"><path
       inkscape:connector-curvature="0"
       style="fill:#ff3817"
       d="m 310.894,58.455 c 0,2.97 -2.418,5.372 -5.388,5.388 l 0,0 c -2.985,-0.016 -5.404,-2.418 -5.404,-5.388 l 0,-49.207 c 0,-2.97 2.418,-5.372 5.404,-5.388 l 0,0 c 2.97,0.016 5.388,2.418 5.372,5.404 l 0.016,49.191 z"
       id="path4697" /><path
       inkscape:connector-curvature="0"
       style="fill:#ff3817"
       d="m 237.56,75.114 c 2.095,2.095 2.095,5.49 0,7.601 l 0,0 c -2.111,2.095 -5.506,2.111 -7.617,0.016 l -34.785,-34.8 c -2.111,-2.095 -2.095,-5.506 0,-7.617 l 0,0 c 2.111,-2.095 5.506,-2.095 7.601,0.016 l 34.801,34.784 z"
       id="path4699" /><path
       inkscape:connector-curvature="0"
       style="fill:#ff3817"
       d="m 373.453,75.114 c -2.095,2.095 -2.095,5.49 0,7.601 l 0,0 c 2.111,2.095 5.506,2.111 7.617,0.016 l 34.784,-34.8 c 2.111,-2.095 2.095,-5.506 0,-7.617 l 0,0 c -2.111,-2.095 -5.522,-2.095 -7.601,0.016 l -34.8,34.784 z"
       id="path4701" /></g><g
     transform="matrix(0.8072222,0,0,0.69742265,-8.1223712,206.47967)"
     id="g4703" /><g
     transform="matrix(0.8072222,0,0,0.69742265,-8.1223712,206.47967)"
     id="g4705" /><g
     transform="matrix(0.8072222,0,0,0.69742265,-8.1223712,206.47967)"
     id="g4707" /><g
     transform="matrix(0.8072222,0,0,0.69742265,-8.1223712,206.47967)"
     id="g4709" /><g
     transform="matrix(0.8072222,0,0,0.69742265,-8.1223712,206.47967)"
     id="g4711" /><g
     transform="matrix(0.8072222,0,0,0.69742265,-8.1223712,206.47967)"
     id="g4713" /><g
     transform="matrix(0.8072222,0,0,0.69742265,-8.1223712,206.47967)"
     id="g4715" /><g
     transform="matrix(0.8072222,0,0,0.69742265,-8.1223712,206.47967)"
     id="g4717" /><g
     transform="matrix(0.8072222,0,0,0.69742265,-8.1223712,206.47967)"
     id="g4719" /><g
     transform="matrix(0.8072222,0,0,0.69742265,-8.1223712,206.47967)"
     id="g4721" /><g
     transform="matrix(0.8072222,0,0,0.69742265,-8.1223712,206.47967)"
     id="g4723" /><g
     transform="matrix(0.8072222,0,0,0.69742265,-8.1223712,206.47967)"
     id="g4725" /><g
     transform="matrix(0.8072222,0,0,0.69742265,-8.1223712,206.47967)"
     id="g4727" /><g
     transform="matrix(0.8072222,0,0,0.69742265,-8.1223712,206.47967)"
     id="g4729" /><g
     transform="matrix(0.8072222,0,0,0.69742265,-8.1223712,206.47967)"
     id="g4731" /></svg>