<?xml version="1.0" encoding="UTF-8" standalone="no"?>
<!-- Generator: Adobe Illustrator 16.0.0, SVG Export Plug-In . SVG Version: 6.00 Build 0)  -->

<svg
   xmlns:dc="http://purl.org/dc/elements/1.1/"
   xmlns:cc="http://creativecommons.org/ns#"
   xmlns:rdf="http://www.w3.org/1999/02/22-rdf-syntax-ns#"
   xmlns:svg="http://www.w3.org/2000/svg"
   xmlns="http://www.w3.org/2000/svg"
   xmlns:sodipodi="http://sodipodi.sourceforge.net/DTD/sodipodi-0.dtd"
   xmlns:inkscape="http://www.inkscape.org/namespaces/inkscape"
   version="1.1"
   id="Capa_1"
   x="0px"
   y="0px"
   width="469.39999"
   height="526"
   viewBox="0 0 469.4 526"
   xml:space="preserve"
   inkscape:version="0.91 r13725"
   sodipodi:docname="chimp7.svg"><metadata
     id="metadata7914"><rdf:RDF><cc:Work
         rdf:about=""><dc:format>image/svg+xml</dc:format><dc:type
           rdf:resource="http://purl.org/dc/dcmitype/StillImage" /><dc:title></dc:title></cc:Work></rdf:RDF></metadata><defs
     id="defs7912" /><sodipodi:namedview
     pagecolor="#ffffff"
     bordercolor="#666666"
     borderopacity="1"
     objecttolerance="10"
     gridtolerance="10"
     guidetolerance="10"
     inkscape:pageopacity="0"
     inkscape:pageshadow="2"
     inkscape:window-width="2560"
     inkscape:window-height="1404"
     id="namedview7910"
     showgrid="false"
     inkscape:zoom="2.011078"
     inkscape:cx="117.84725"
     inkscape:cy="275.40081"
     inkscape:window-x="0"
     inkscape:window-y="36"
     inkscape:window-maximized="1"
     inkscape:current-layer="Capa_1"
     fit-margin-top="0"
     fit-margin-left="0"
     fit-margin-right="0"
     fit-margin-bottom="11" /><g
     id="g7868"
     transform="translate(0,-4.0430054)"><path
       d="m 469.4,218.45 c 0,-33.8 -27.5,-61.4 -61.4,-61.4 -3.3,0 -6.5,0.3 -9.6,0.8 -12.3,-86.8 -81,-153.2 -163.9,-153.2 -82.9,0 -151.6,66.4 -163.9,153.2 -3,-0.5 -6.1,-0.7 -9.2,-0.7 -33.8,0 -61.4,27.5 -61.4,61.4 0,33 26.2,60.1 59,61.3 -2.4,10.2 -3.7,20.601 -3.7,31.2 0,21.199 4.9,41.8 14.7,61.1 9.3,18.4 22.4,34.8 39.1,48.8 33.6,28.2 78.2,43.801 125.3,43.801 47.1,0 91.8,-15.601 125.5,-43.9 16.7,-14 29.899,-30.4 39.1,-48.8 9.7,-19.301 14.7,-39.9 14.7,-61.1 0,-10.601 -1.2,-21 -3.7,-31.201 32.9,-1 59.4,-28.1 59.4,-61.3 z m -76.7,92.501 c 0,4.399 -0.3,8.699 -0.8,13 l -50.4,0 -214,0 -50.4,0 c -0.5,-4.301 -0.8,-8.601 -0.8,-13 0,-12 1.9,-23.601 5.4,-34.601 1.2,-3.601 2.5,-7.101 4,-10.601 8,-18.5 20.8,-35.1 37,-48.699 1.8,-1.5 3.7,-3 5.6,-4.5 -2.8,-4.6 -5.4,-9.4 -7.7,-14.4 -19.3,-43.1 -8.1,-85.1 25,-93.8 4.1,-1.1 8.4,-1.6 12.7,-1.6 27.3,0 57.8,20.7 76.1,51.8 18.3,-31.2 48.8,-51.8 76.1,-51.8 4.3,0 8.601,0.5 12.7,1.6 33.1,8.7 44.3,50.7 25,93.8 -2.3,5 -4.8,9.9 -7.7,14.4 2,1.6 4,3.2 6,4.8 16.101,13.6 28.7,30 36.7,48.399 1.5,3.4 2.8,6.9 3.9,10.5 3.7,11.101 5.6,22.702 5.6,34.702 z m -237.2,34 158.101,0 73.899,0 c -17.899,56.8 -79.6,98.699 -153,98.699 -73.4,0 -135.1,-41.899 -153,-98.699 l 74,0 0,0 z M 61.4,258.85 c -22.3,0 -40.4,-18.101 -40.4,-40.4 0,-22.3 18.1,-40.4 40.4,-40.4 2.5,0 5,0.2 7.4,0.7 -0.1,2.3 -0.1,4.6 -0.1,7 0,6 0.3,11.8 0.8,17.6 -4.3,-2.9 -9.4,-5.2 -15.3,-6.6 -5.6,-1.3 -11.3,2.2 -12.6,7.8 -1.3,5.6 2.2,11.3 7.8,12.6 17.3,4.1 23,24.1 23.1,24.5 0.2,0.801 0.5,1.5 0.8,2.2 -0.5,0.8 -0.9,1.601 -1.4,2.399 -2.2,4.101 -4.2,8.201 -5.9,12.301 -1.5,0.2 -3,0.3 -4.6,0.3 z m 346.6,0 c -1.7,0 -3.3,-0.101 -5,-0.3 -1.8,-4.1 -3.7,-8.2 -5.899,-12.301 -0.7,-1.299 -1.5,-2.6 -2.2,-4 0.1,-0.199 0.1,-0.399 0.2,-0.6 0.1,-0.199 5.699,-20.5 23.1,-24.5 5.6,-1.3 9.1,-7 7.8,-12.6 -1.3,-5.6 -7,-9.1 -12.6,-7.8 -5.2,1.2 -9.8,3.2 -13.8,5.6 0.5,-5.5 0.699,-11 0.699,-16.6 0,-2.3 -0.1,-4.6 -0.1,-6.9 2.5,-0.5 5.1,-0.8 7.8,-0.8 22.3,0 40.4,18.1 40.4,40.4 0,22.301 -18.1,40.401 -40.4,40.401 z"
       id="path7870"
       inkscape:connector-curvature="0" /><path
       d="m 214.5,263.35 c -4.7,-5.5 -13,-6.101 -18.5,-1.399 -5.5,4.699 -6.1,13 -1.4,18.5 l 12.1,14.1 c 2.6,3 6.3,4.6 10,4.6 3,0 6,-1 8.5,-3.1 5.5,-4.7 6.1,-13 1.4,-18.5 L 214.5,263.35 Z"
       id="path7872"
       inkscape:connector-curvature="0" /><path
       d="m 273,261.85 c -5.5,-4.7 -13.8,-4.101 -18.5,1.399 l -12.1,14.101 c -4.7,5.5 -4.1,13.8 1.4,18.5 2.5,2.101 5.5,3.101 8.5,3.101 3.699,0 7.399,-1.601 10,-4.601 l 12.1,-14.101 c 4.8,-5.399 4.1,-13.699 -1.4,-18.399 z"
       id="path7874"
       inkscape:connector-curvature="0" /><circle
       cx="191.2"
       cy="199.25"
       r="21.299999"
       id="circle7876" /><circle
       cx="277.80099"
       cy="199.25"
       r="21.299999"
       id="circle7878" /></g><g
     id="g7880"
     transform="translate(0,-4.0430054)" /><g
     id="g7882"
     transform="translate(0,-4.0430054)" /><g
     id="g7884"
     transform="translate(0,-4.0430054)" /><g
     id="g7886"
     transform="translate(0,-4.0430054)" /><g
     id="g7888"
     transform="translate(0,-4.0430054)" /><g
     id="g7890"
     transform="translate(0,-4.0430054)" /><g
     id="g7892"
     transform="translate(0,-4.0430054)" /><g
     id="g7894"
     transform="translate(0,-4.0430054)" /><g
     id="g7896"
     transform="translate(0,-4.0430054)" /><g
     id="g7898"
     transform="translate(0,-4.0430054)" /><g
     id="g7900"
     transform="translate(0,-4.0430054)" /><g
     id="g7902"
     transform="translate(0,-4.0430054)" /><g
     id="g7904"
     transform="translate(0,-4.0430054)" /><g
     id="g7906"
     transform="translate(0,-4.0430054)" /><g
     id="g7908"
     transform="translate(0,-4.0430054)" /><rect
     x="365.61624"
     y="275.9834"
     style="fill:#282828"
     width="52.384373"
     height="40.420776"
     id="rect8204" /><path
     inkscape:connector-curvature="0"
     style="fill:#c2f9fa"
     d="m 428.55011,275.934 -73.48261,0 c -8.72691,0 -15.80245,-7.17627 -15.80245,-16.0291 l 0,-38.62821 c 0,-8.85208 7.0748,-16.02909 15.80245,-16.02909 l 73.48261,0 c 8.72691,0 15.80245,7.17627 15.80245,16.02909 l 0,38.62821 c 0,8.85283 -7.07554,16.0291 -15.80245,16.0291 z"
     id="path8206" /><path
     inkscape:connector-curvature="0"
     style="fill:#b4e8e8"
     d="m 427.70745,275.934 -35.89791,0 c 0,-18.83734 0,-53.43432 0,-70.6864 l 35.89791,0 c 9.19252,0 16.64511,7.55948 16.64511,16.88384 l 0,36.91871 c 0,9.32511 -7.45186,16.88385 -16.64511,16.88385 z"
     id="path8208" /><g
     transform="matrix(0.73788087,0,0,0.74846357,116.41027,131.78665)"
     id="g8210"><path
       inkscape:connector-curvature="0"
       style="fill:#4d4d4d"
       d="m 421.88,204.316 -97.302,0 c -18.903,0 -34.282,-15.379 -34.282,-34.282 l 0,-49.326 c 0,-18.904 15.379,-34.282 34.282,-34.282 l 97.302,0 c 18.903,0 34.282,15.379 34.282,34.282 l 0,49.326 c 0,18.903 -15.379,34.282 -34.282,34.282 z m -97.302,-94.442 c -5.973,0 -10.833,4.861 -10.833,10.834 l 0,49.326 c 0,5.974 4.861,10.834 10.833,10.834 l 97.302,0 c 5.973,0 10.833,-4.861 10.833,-10.834 l 0,-49.326 c 0,-5.974 -4.861,-10.834 -10.833,-10.834 l -97.302,0 z"
       id="path8212" /><path
       inkscape:connector-curvature="0"
       style="fill:#4d4d4d"
       d="m 94.179,215.239 0,32.289 c 0,7.016 5.688,12.703 12.703,12.703 l 47.733,0 c 7.016,0 12.703,-5.688 12.703,-12.703 l 0,-32.289 c 0,-7.016 -5.688,-12.703 -12.703,-12.703 l -47.733,0 c -7.015,0 -12.703,5.688 -12.703,12.703 z"
       id="path8214" /></g><path
     inkscape:connector-curvature="0"
     style="fill:#f5f6f6"
     d="m 429.39941,515 -254.06419,0 c -17.12179,0 -31.00059,-14.0786 -31.00059,-31.4452 l 0,-150.82888 c 0,-17.36735 13.87954,-31.4452 31.00059,-31.4452 l 254.06492,0 c 17.12179,0 31.00059,14.0786 31.00059,31.4452 l 0,150.82888 C 460.4,500.9214 446.52119,515 429.39941,515 Z"
     id="path8216" /><path
     inkscape:connector-curvature="0"
     style="fill:#e5e5e5"
     d="m 427.74655,515 -125.37924,0 c 0,-24.49647 0,-204.9907 0,-213.71853 l 125.37851,0 c 18.03454,0 32.65418,14.8293 32.65418,33.12325 l 0,147.47277 C 460.4,500.17069 445.78036,515 427.74655,515 Z"
     id="path8218" /><rect
     x="144.33463"
     y="348.10236"
     style="fill:#7a7a7c"
     width="316.06683"
     height="120.07078"
     id="rect8220" /><rect
     x="302.3688"
     y="348.10236"
     style="fill:#6a6a6b"
     width="158.03342"
     height="120.07078"
     id="rect8222" /><ellipse
     style="fill:#4d4d4d"
     cx="302.3688"
     cy="408.14185"
     id="circle8224"
     rx="76.117577"
     ry="77.209251" /><path
     inkscape:connector-curvature="0"
     style="fill:#282828"
     d="m 302.36658,330.9326 c 42.03781,0 76.1161,34.56779 76.1161,77.20776 0,42.63997 -34.07903,77.20776 -76.1161,77.20776 0,-34.86119 0,-136.49955 0,-154.41552 z"
     id="path8226" /><ellipse
     style="fill:#ffffff"
     cx="302.3688"
     cy="408.14185"
     id="circle8228"
     rx="59.19059"
     ry="60.039505" /><path
     inkscape:connector-curvature="0"
     style="fill:#f5f6f6"
     d="m 302.36658,348.1046 c 32.68812,0 59.18763,26.87882 59.18763,60.03651 0,33.15768 -26.49877,60.0365 -59.18763,60.0365 0,-31.50881 0,-103.99078 0,-120.07301 z"
     id="path8230" /><ellipse
     style="fill:#c2f9fa"
     cx="302.3688"
     cy="408.14185"
     id="circle8232"
     rx="41.851128"
     ry="42.451355" /><path
     inkscape:connector-curvature="0"
     style="fill:#b4e8e8"
     d="m 302.36658,365.68825 c 23.11338,0 41.85112,19.00649 41.85112,42.45136 0,23.44487 -18.73774,42.45136 -41.85112,42.45136 0,-31.36587 0,-73.47218 0,-84.90272 z"
     id="path8234" /><rect
     x="202.8604"
     y="310.00558"
     style="fill:#d02d7f"
     width="20.057816"
     height="8.065443"
     id="rect8236" /><rect
     y="131.78665"
     x="379.01172"
     style="fill:#f6c958"
     width="25.591183"
     height="40.362392"
     id="rect8238" /><rect
     y="131.78665"
     x="391.80731"
     style="fill:#e5bc53"
     width="12.797069"
     height="40.362392"
     id="rect8240" /><rect
     x="-144.50127"
     y="-373.36044"
     transform="matrix(-0.70205442,0.7121233,-0.70205442,-0.7121233,0,0)"
     style="fill:#f6c958"
     width="25.775105"
     height="40.076935"
     id="rect8242" /><rect
     x="-439.35983"
     y="184.73274"
     transform="matrix(-0.70205442,-0.7121233,0.70205442,-0.7121233,0,0)"
     style="fill:#e5bc53"
     width="25.775105"
     height="40.076935"
     id="rect8244" /><path
     inkscape:connector-curvature="0"
     style="fill:#282828"
     d="m 427.70745,196.47411 -35.89865,0 0,17.54997 35.89865,0 c 4.40736,0 7.99346,3.63828 7.99346,8.10886 l 0,36.91871 c 0,4.47132 -3.58684,8.10886 -7.99346,8.10886 l -35.89865,0 0,17.54997 35.89865,0 c 13.94816,0 25.29603,-11.51062 25.29603,-25.65883 l 0,-36.91871 c 0,-14.14896 -11.34787,-25.65883 -25.29603,-25.65883 z"
     id="path8246" /><g
     transform="matrix(0.73788087,0,0,0.74846357,-83.979773,-60.647457)"
     id="g8248" /><g
     transform="matrix(0.73788087,0,0,0.74846357,-83.979773,-60.647457)"
     id="g8250" /><g
     transform="matrix(0.73788087,0,0,0.74846357,-83.979773,-60.647457)"
     id="g8252" /><g
     transform="matrix(0.73788087,0,0,0.74846357,-83.979773,-60.647457)"
     id="g8254" /><g
     transform="matrix(0.73788087,0,0,0.74846357,-83.979773,-60.647457)"
     id="g8256" /><g
     transform="matrix(0.73788087,0,0,0.74846357,-83.979773,-60.647457)"
     id="g8258" /><g
     transform="matrix(0.73788087,0,0,0.74846357,-83.979773,-60.647457)"
     id="g8260" /><g
     transform="matrix(0.73788087,0,0,0.74846357,-83.979773,-60.647457)"
     id="g8262" /><g
     transform="matrix(0.73788087,0,0,0.74846357,-83.979773,-60.647457)"
     id="g8264" /><g
     transform="matrix(0.73788087,0,0,0.74846357,-83.979773,-60.647457)"
     id="g8266" /><g
     transform="matrix(0.73788087,0,0,0.74846357,-83.979773,-60.647457)"
     id="g8268" /><g
     transform="matrix(0.73788087,0,0,0.74846357,-83.979773,-60.647457)"
     id="g8270" /><g
     transform="matrix(0.73788087,0,0,0.74846357,-83.979773,-60.647457)"
     id="g8272" /><g
     transform="matrix(0.73788087,0,0,0.74846357,-83.979773,-60.647457)"
     id="g8274" /><g
     transform="matrix(0.73788087,0,0,0.74846357,-83.979773,-60.647457)"
     id="g8276" /></svg>