<?xml version="1.0" encoding="UTF-8" standalone="no"?>
<!-- Generator: Adobe Illustrator 16.0.0, SVG Export Plug-In . SVG Version: 6.00 Build 0)  -->

<svg
   xmlns:dc="http://purl.org/dc/elements/1.1/"
   xmlns:cc="http://creativecommons.org/ns#"
   xmlns:rdf="http://www.w3.org/1999/02/22-rdf-syntax-ns#"
   xmlns:svg="http://www.w3.org/2000/svg"
   xmlns="http://www.w3.org/2000/svg"
   xmlns:sodipodi="http://sodipodi.sourceforge.net/DTD/sodipodi-0.dtd"
   xmlns:inkscape="http://www.inkscape.org/namespaces/inkscape"
   version="1.1"
   id="Capa_1"
   x="0px"
   y="0px"
   width="469.39999"
   height="526"
   viewBox="0 0 469.4 526.00001"
   xml:space="preserve"
   inkscape:version="0.91 r13725"
   sodipodi:docname="chimp4.svg"><metadata
     id="metadata5134"><rdf:RDF><cc:Work
         rdf:about=""><dc:format>image/svg+xml</dc:format><dc:type
           rdf:resource="http://purl.org/dc/dcmitype/StillImage" /><dc:title /></cc:Work></rdf:RDF></metadata><defs
     id="defs5132" /><sodipodi:namedview
     pagecolor="#ffffff"
     bordercolor="#666666"
     borderopacity="1"
     objecttolerance="10"
     gridtolerance="10"
     guidetolerance="10"
     inkscape:pageopacity="0"
     inkscape:pageshadow="2"
     inkscape:window-width="2560"
     inkscape:window-height="1404"
     id="namedview5130"
     showgrid="false"
     inkscape:zoom="1.4220469"
     inkscape:cx="-95.809494"
     inkscape:cy="295.07873"
     inkscape:window-x="0"
     inkscape:window-y="36"
     inkscape:window-maximized="1"
     inkscape:current-layer="Capa_1"
     fit-margin-top="0"
     fit-margin-left="0"
     fit-margin-right="0"
     fit-margin-bottom="14" /><path
     inkscape:connector-curvature="0"
     style="fill:#d19d7d;fill-opacity:1;fill-rule:evenodd;stroke:none;stroke-width:1.35208869px;stroke-linecap:butt;stroke-linejoin:miter;stroke-opacity:1"
     d="M 236.61293,41.168689 A 168.6389,213.39101 0 0 0 82.341456,168.69799 a 47.808182,50.543022 0 0 0 -20.50977,-4.95703 47.808182,50.543022 0 0 0 -47.80859,50.54296 47.808182,50.543022 0 0 0 47.80859,50.54297 47.808182,50.543022 0 0 0 6.41602,-0.51758 168.6389,213.39101 0 0 0 168.365224,203.64258 168.6389,213.39101 0 0 0 168.30859,-205.02343 47.808182,50.543022 0 0 0 2.9922,0.1582 47.808182,50.543022 0 0 0 47.8086,-50.54297 47.808182,50.543022 0 0 0 -47.8086,-50.54297 47.808182,50.543022 0 0 0 -18.15626,3.82813 A 168.6389,213.39101 0 0 0 236.61293,41.168689 Z"
     id="path3395" /><g
     id="g5088"
     transform="translate(0,-3.7787231)"><path
       d="m 469.4,218.45 c 0,-33.8 -27.5,-61.4 -61.4,-61.4 -3.3,0 -6.5,0.3 -9.6,0.8 -12.3,-86.8 -81,-153.2 -163.9,-153.2 -82.9,0 -151.6,66.4 -163.9,153.2 -3,-0.5 -6.1,-0.7 -9.2,-0.7 -33.8,0 -61.4,27.5 -61.4,61.4 0,33 26.2,60.1 59,61.3 -2.4,10.2 -3.7,20.601 -3.7,31.2 0,21.199 4.9,41.8 14.7,61.1 9.3,18.4 22.4,34.8 39.1,48.8 33.6,28.2 78.2,43.801 125.3,43.801 47.1,0 91.8,-15.601 125.5,-43.9 16.7,-14 29.899,-30.4 39.1,-48.8 9.7,-19.301 14.7,-39.9 14.7,-61.1 0,-10.601 -1.2,-21 -3.7,-31.201 32.9,-1 59.4,-28.1 59.4,-61.3 z m -76.7,92.501 c 0,4.399 -0.3,8.699 -0.8,13 l -50.4,0 -214,0 -50.4,0 c -0.5,-4.301 -0.8,-8.601 -0.8,-13 0,-12 1.9,-23.601 5.4,-34.601 1.2,-3.601 2.5,-7.101 4,-10.601 8,-18.5 20.8,-35.1 37,-48.699 1.8,-1.5 3.7,-3 5.6,-4.5 -2.8,-4.6 -5.4,-9.4 -7.7,-14.4 -19.3,-43.1 -8.1,-85.1 25,-93.8 4.1,-1.1 8.4,-1.6 12.7,-1.6 27.3,0 57.8,20.7 76.1,51.8 18.3,-31.2 48.8,-51.8 76.1,-51.8 4.3,0 8.601,0.5 12.7,1.6 33.1,8.7 44.3,50.7 25,93.8 -2.3,5 -4.8,9.9 -7.7,14.4 2,1.6 4,3.2 6,4.8 16.101,13.6 28.7,30 36.7,48.399 1.5,3.4 2.8,6.9 3.9,10.5 3.7,11.101 5.6,22.702 5.6,34.702 z m -237.2,34 158.101,0 73.899,0 c -17.899,56.8 -79.6,98.699 -153,98.699 -73.4,0 -135.1,-41.899 -153,-98.699 l 74,0 0,0 z M 61.4,258.85 c -22.3,0 -40.4,-18.101 -40.4,-40.4 0,-22.3 18.1,-40.4 40.4,-40.4 2.5,0 5,0.2 7.4,0.7 -0.1,2.3 -0.1,4.6 -0.1,7 0,6 0.3,11.8 0.8,17.6 -4.3,-2.9 -9.4,-5.2 -15.3,-6.6 -5.6,-1.3 -11.3,2.2 -12.6,7.8 -1.3,5.6 2.2,11.3 7.8,12.6 17.3,4.1 23,24.1 23.1,24.5 0.2,0.801 0.5,1.5 0.8,2.2 -0.5,0.8 -0.9,1.601 -1.4,2.399 -2.2,4.101 -4.2,8.201 -5.9,12.301 -1.5,0.2 -3,0.3 -4.6,0.3 z m 346.6,0 c -1.7,0 -3.3,-0.101 -5,-0.3 -1.8,-4.1 -3.7,-8.2 -5.899,-12.301 -0.7,-1.299 -1.5,-2.6 -2.2,-4 0.1,-0.199 0.1,-0.399 0.2,-0.6 0.1,-0.199 5.699,-20.5 23.1,-24.5 5.6,-1.3 9.1,-7 7.8,-12.6 -1.3,-5.6 -7,-9.1 -12.6,-7.8 -5.2,1.2 -9.8,3.2 -13.8,5.6 0.5,-5.5 0.699,-11 0.699,-16.6 0,-2.3 -0.1,-4.6 -0.1,-6.9 2.5,-0.5 5.1,-0.8 7.8,-0.8 22.3,0 40.4,18.1 40.4,40.4 0,22.301 -18.1,40.401 -40.4,40.401 z"
       id="path5090"
       inkscape:connector-curvature="0" /><path
       d="m 214.5,263.35 c -4.7,-5.5 -13,-6.101 -18.5,-1.399 -5.5,4.699 -6.1,13 -1.4,18.5 l 12.1,14.1 c 2.6,3 6.3,4.6 10,4.6 3,0 6,-1 8.5,-3.1 5.5,-4.7 6.1,-13 1.4,-18.5 L 214.5,263.35 Z"
       id="path5092"
       inkscape:connector-curvature="0" /><path
       d="m 273,261.85 c -5.5,-4.7 -13.8,-4.101 -18.5,1.399 l -12.1,14.101 c -4.7,5.5 -4.1,13.8 1.4,18.5 2.5,2.101 5.5,3.101 8.5,3.101 3.699,0 7.399,-1.601 10,-4.601 l 12.1,-14.101 c 4.8,-5.399 4.1,-13.699 -1.4,-18.399 z"
       id="path5094"
       inkscape:connector-curvature="0" /><circle
       cx="191.2"
       cy="199.25"
       r="21.299999"
       id="circle5096" /><circle
       cx="277.80099"
       cy="199.25"
       r="21.299999"
       id="circle5098" /></g><g
     id="g5100"
     transform="translate(0,-3.7787231)" /><g
     id="g5102"
     transform="translate(0,-3.7787231)" /><g
     id="g5104"
     transform="translate(0,-3.7787231)" /><g
     id="g5106"
     transform="translate(0,-3.7787231)" /><g
     id="g5108"
     transform="translate(0,-3.7787231)" /><g
     id="g5110"
     transform="translate(0,-3.7787231)" /><g
     id="g5112"
     transform="translate(0,-3.7787231)" /><g
     id="g5114"
     transform="translate(0,-3.7787231)" /><g
     id="g5116"
     transform="translate(0,-3.7787231)" /><g
     id="g5118"
     transform="translate(0,-3.7787231)" /><g
     id="g5120"
     transform="translate(0,-3.7787231)" /><g
     id="g5122"
     transform="translate(0,-3.7787231)" /><g
     id="g5124"
     transform="translate(0,-3.7787231)" /><g
     id="g5126"
     transform="translate(0,-3.7787231)" /><g
     id="g5128"
     transform="translate(0,-3.7787231)" /><g
     transform="matrix(3.4375291,0,0,3.2452645,64.532893,232.93648)"
     id="g5516"><path
       inkscape:connector-curvature="0"
       style="fill:#484e4e"
       d="m 63.9,28.673 c 0,1.356 -2.528,2.455 -3.72,2.455 l -23.9,0 c -1.191,0 -3.72,-1.099 -3.72,-2.455 l 1.563,-15.749 c 0,-1.355 0.966,-2.454 2.157,-2.454 l 23.9,0 c 1.191,0 2.158,1.099 2.158,2.454 L 63.9,28.673 Z"
       id="path5518" /><path
       inkscape:connector-curvature="0"
       style="fill:#ffffff"
       d="m 59.066,14.383 c 0,0.791 -0.563,1.432 -1.259,1.432 l -19.357,0 c -0.695,0 -1.259,-0.641 -1.259,-1.432 l 0,0 c 0,-0.791 0.564,-1.432 1.259,-1.432 l 19.357,0 c 0.695,0 1.259,0.641 1.259,1.432 l 0,0 z"
       id="path5520" /><path
       inkscape:connector-curvature="0"
       style="fill:#484e4e"
       d="m 81.884,25.859 c 0,1.128 -0.81,2.043 -1.808,2.043 l -2.216,0 c -0.998,0 -1.808,-0.915 -1.808,-2.043 l 0,-5.591 c 0,-1.129 0.81,-2.043 1.808,-2.043 l 2.217,0 c 0.998,0 1.808,0.915 1.808,2.043 l 0,5.591 z"
       id="path5522" /><path
       inkscape:connector-curvature="0"
       style="fill:#484e4e"
       d="m 25.101,25.283 0,-3.435 c 0,-1.339 -1.085,-2.424 -2.424,-2.424 l -8.89,0 c -1.338,0 -2.424,1.085 -2.424,2.424 l 0,3.435 13.738,0 z"
       id="path5524" /><path
       inkscape:connector-curvature="0"
       style="fill:#484e4e"
       d="m 50.02,40.786 -2.099,0 c -0.818,0 -1.48,0.663 -1.48,1.48 l 0,11.875 c 0,0.817 0.663,1.48 1.48,1.48 l 2.099,0 0,-14.835 z"
       id="path5526" /><path
       inkscape:connector-curvature="0"
       style="fill:#484e4e"
       d="m 46.441,40.786 2.098,0 c 0.818,0 1.481,0.663 1.481,1.48 l 0,11.875 c 0,0.817 -0.663,1.48 -1.481,1.48 l -2.098,0 0,-14.835 z"
       id="path5528" /><path
       inkscape:connector-curvature="0"
       style="fill:#cfcec7"
       d="m 96.308,78.639 c 0,4.061 -3.292,7.352 -7.353,7.352 l -81.45,0 c -4.061,0 -7.352,-3.292 -7.352,-7.352 l 0,-47.183 c 0,-4.061 3.292,-7.352 7.352,-7.352 l 81.451,0 c 4.061,0 7.353,3.292 7.353,7.352 l 0,47.183 z"
       id="path5530" /><rect
       x="0"
       y="38.497002"
       style="fill:#484e4e"
       width="96.459999"
       height="33.101002"
       id="rect5532" /><g
       id="g5534"><circle
         style="fill:#cfcec7"
         cx="83.474998"
         cy="61.905998"
         r="3.7490001"
         id="circle5536" /><circle
         style="fill:#ff7526"
         cx="83.474998"
         cy="61.905998"
         r="2.21"
         id="circle5538" /></g><path
       inkscape:connector-curvature="0"
       style="opacity:0.16000001;fill:#ffffff"
       d="m 48.128,10.469 -11.848,0 c -1.191,0 -2.157,1.099 -2.157,2.454 l -1.109,11.181 -7.912,0 0,-2.256 c 0,-1.339 -1.085,-2.424 -2.424,-2.424 l -8.89,0 c -1.338,0 -2.424,1.085 -2.424,2.424 l 0,2.256 -3.859,0 c -4.061,0 -7.352,3.292 -7.352,7.352 l 0,7.041 -0.153,0 0,33.101 0.152,0 0,7.041 c 0,4.061 3.292,7.352 7.352,7.352 l 40.624,0 0,-75.522 z"
       id="path5540" /><circle
       style="fill:#ff7526"
       cx="48.23"
       cy="55.801998"
       r="27.011"
       id="circle5542" /><circle
       style="fill:#484e4e"
       cx="48.23"
       cy="55.801998"
       r="21.295"
       id="circle5544" /><circle
       style="fill:#cfcec7"
       cx="48.23"
       cy="55.801998"
       r="15.899"
       id="circle5546" /><circle
       style="fill:#484e4e"
       cx="48.23"
       cy="55.801998"
       r="11.447"
       id="circle5548" /><circle
       style="fill:#ffffff"
       cx="41.534"
       cy="48.681999"
       r="4.7290001"
       id="circle5550" /></g><g
     transform="matrix(3.4375291,0,0,3.2452645,64.532893,232.93648)"
     id="g5552" /><g
     transform="matrix(3.4375291,0,0,3.2452645,64.532893,232.93648)"
     id="g5554" /><g
     transform="matrix(3.4375291,0,0,3.2452645,64.532893,232.93648)"
     id="g5556" /><g
     transform="matrix(3.4375291,0,0,3.2452645,64.532893,232.93648)"
     id="g5558" /><g
     transform="matrix(3.4375291,0,0,3.2452645,64.532893,232.93648)"
     id="g5560" /><g
     transform="matrix(3.4375291,0,0,3.2452645,64.532893,232.93648)"
     id="g5562" /><g
     transform="matrix(3.4375291,0,0,3.2452645,64.532893,232.93648)"
     id="g5564" /><g
     transform="matrix(3.4375291,0,0,3.2452645,64.532893,232.93648)"
     id="g5566" /><g
     transform="matrix(3.4375291,0,0,3.2452645,64.532893,232.93648)"
     id="g5568" /><g
     transform="matrix(3.4375291,0,0,3.2452645,64.532893,232.93648)"
     id="g5570" /><g
     transform="matrix(3.4375291,0,0,3.2452645,64.532893,232.93648)"
     id="g5572" /><g
     transform="matrix(3.4375291,0,0,3.2452645,64.532893,232.93648)"
     id="g5574" /><g
     transform="matrix(3.4375291,0,0,3.2452645,64.532893,232.93648)"
     id="g5576" /><g
     transform="matrix(3.4375291,0,0,3.2452645,64.532893,232.93648)"
     id="g5578" /><g
     transform="matrix(3.4375291,0,0,3.2452645,64.532893,232.93648)"
     id="g5580" /></svg>