<?xml version="1.0" encoding="UTF-8" standalone="no"?>
<!-- Generator: Adobe Illustrator 16.0.0, SVG Export Plug-In . SVG Version: 6.00 Build 0)  -->

<svg
   xmlns:dc="http://purl.org/dc/elements/1.1/"
   xmlns:cc="http://creativecommons.org/ns#"
   xmlns:rdf="http://www.w3.org/1999/02/22-rdf-syntax-ns#"
   xmlns:svg="http://www.w3.org/2000/svg"
   xmlns="http://www.w3.org/2000/svg"
   xmlns:sodipodi="http://sodipodi.sourceforge.net/DTD/sodipodi-0.dtd"
   xmlns:inkscape="http://www.inkscape.org/namespaces/inkscape"
   version="1.1"
   id="Capa_1"
   x="0px"
   y="0px"
   width="469.39999"
   height="526"
   viewBox="0 0 469.4 526"
   xml:space="preserve"
   inkscape:version="0.91 r13725"
   sodipodi:docname="chimp5.svg"><metadata
     id="metadata5915"><rdf:RDF><cc:Work
         rdf:about=""><dc:format>image/svg+xml</dc:format><dc:type
           rdf:resource="http://purl.org/dc/dcmitype/StillImage" /><dc:title></dc:title></cc:Work></rdf:RDF></metadata><defs
     id="defs5913" /><sodipodi:namedview
     pagecolor="#ffffff"
     bordercolor="#666666"
     borderopacity="1"
     objecttolerance="10"
     gridtolerance="10"
     guidetolerance="10"
     inkscape:pageopacity="0"
     inkscape:pageshadow="2"
     inkscape:window-width="2560"
     inkscape:window-height="1404"
     id="namedview5911"
     showgrid="false"
     inkscape:zoom="2.011078"
     inkscape:cx="117.84725"
     inkscape:cy="295.50817"
     inkscape:window-x="0"
     inkscape:window-y="36"
     inkscape:window-maximized="1"
     inkscape:current-layer="Capa_1"
     fit-margin-top="0"
     fit-margin-left="0"
     fit-margin-right="0"
     fit-margin-bottom="15" /><g
     id="g5869"
     transform="translate(0,-4.2081055)"><path
       d="m 469.4,218.45 c 0,-33.8 -27.5,-61.4 -61.4,-61.4 -3.3,0 -6.5,0.3 -9.6,0.8 -12.3,-86.8 -81,-153.2 -163.9,-153.2 -82.9,0 -151.6,66.4 -163.9,153.2 -3,-0.5 -6.1,-0.7 -9.2,-0.7 -33.8,0 -61.4,27.5 -61.4,61.4 0,33 26.2,60.1 59,61.3 -2.4,10.2 -3.7,20.601 -3.7,31.2 0,21.199 4.9,41.8 14.7,61.1 9.3,18.4 22.4,34.8 39.1,48.8 33.6,28.2 78.2,43.801 125.3,43.801 47.1,0 91.8,-15.601 125.5,-43.9 16.7,-14 29.899,-30.4 39.1,-48.8 9.7,-19.301 14.7,-39.9 14.7,-61.1 0,-10.601 -1.2,-21 -3.7,-31.201 32.9,-1 59.4,-28.1 59.4,-61.3 z m -76.7,92.501 c 0,4.399 -0.3,8.699 -0.8,13 l -50.4,0 -214,0 -50.4,0 c -0.5,-4.301 -0.8,-8.601 -0.8,-13 0,-12 1.9,-23.601 5.4,-34.601 1.2,-3.601 2.5,-7.101 4,-10.601 8,-18.5 20.8,-35.1 37,-48.699 1.8,-1.5 3.7,-3 5.6,-4.5 -2.8,-4.6 -5.4,-9.4 -7.7,-14.4 -19.3,-43.1 -8.1,-85.1 25,-93.8 4.1,-1.1 8.4,-1.6 12.7,-1.6 27.3,0 57.8,20.7 76.1,51.8 18.3,-31.2 48.8,-51.8 76.1,-51.8 4.3,0 8.601,0.5 12.7,1.6 33.1,8.7 44.3,50.7 25,93.8 -2.3,5 -4.8,9.9 -7.7,14.4 2,1.6 4,3.2 6,4.8 16.101,13.6 28.7,30 36.7,48.399 1.5,3.4 2.8,6.9 3.9,10.5 3.7,11.101 5.6,22.702 5.6,34.702 z m -237.2,34 158.101,0 73.899,0 c -17.899,56.8 -79.6,98.699 -153,98.699 -73.4,0 -135.1,-41.899 -153,-98.699 l 74,0 0,0 z M 61.4,258.85 c -22.3,0 -40.4,-18.101 -40.4,-40.4 0,-22.3 18.1,-40.4 40.4,-40.4 2.5,0 5,0.2 7.4,0.7 -0.1,2.3 -0.1,4.6 -0.1,7 0,6 0.3,11.8 0.8,17.6 -4.3,-2.9 -9.4,-5.2 -15.3,-6.6 -5.6,-1.3 -11.3,2.2 -12.6,7.8 -1.3,5.6 2.2,11.3 7.8,12.6 17.3,4.1 23,24.1 23.1,24.5 0.2,0.801 0.5,1.5 0.8,2.2 -0.5,0.8 -0.9,1.601 -1.4,2.399 -2.2,4.101 -4.2,8.201 -5.9,12.301 -1.5,0.2 -3,0.3 -4.6,0.3 z m 346.6,0 c -1.7,0 -3.3,-0.101 -5,-0.3 -1.8,-4.1 -3.7,-8.2 -5.899,-12.301 -0.7,-1.299 -1.5,-2.6 -2.2,-4 0.1,-0.199 0.1,-0.399 0.2,-0.6 0.1,-0.199 5.699,-20.5 23.1,-24.5 5.6,-1.3 9.1,-7 7.8,-12.6 -1.3,-5.6 -7,-9.1 -12.6,-7.8 -5.2,1.2 -9.8,3.2 -13.8,5.6 0.5,-5.5 0.699,-11 0.699,-16.6 0,-2.3 -0.1,-4.6 -0.1,-6.9 2.5,-0.5 5.1,-0.8 7.8,-0.8 22.3,0 40.4,18.1 40.4,40.4 0,22.301 -18.1,40.401 -40.4,40.401 z"
       id="path5871"
       inkscape:connector-curvature="0" /><path
       d="m 214.5,263.35 c -4.7,-5.5 -13,-6.101 -18.5,-1.399 -5.5,4.699 -6.1,13 -1.4,18.5 l 12.1,14.1 c 2.6,3 6.3,4.6 10,4.6 3,0 6,-1 8.5,-3.1 5.5,-4.7 6.1,-13 1.4,-18.5 L 214.5,263.35 Z"
       id="path5873"
       inkscape:connector-curvature="0" /><path
       d="m 273,261.85 c -5.5,-4.7 -13.8,-4.101 -18.5,1.399 l -12.1,14.101 c -4.7,5.5 -4.1,13.8 1.4,18.5 2.5,2.101 5.5,3.101 8.5,3.101 3.699,0 7.399,-1.601 10,-4.601 l 12.1,-14.101 c 4.8,-5.399 4.1,-13.699 -1.4,-18.399 z"
       id="path5875"
       inkscape:connector-curvature="0" /><circle
       cx="191.2"
       cy="199.25"
       r="21.299999"
       id="circle5877" /><circle
       cx="277.80099"
       cy="199.25"
       r="21.299999"
       id="circle5879" /></g><g
     id="g5881"
     transform="translate(0,-4.2081055)" /><g
     id="g5883"
     transform="translate(0,-4.2081055)" /><g
     id="g5885"
     transform="translate(0,-4.2081055)" /><g
     id="g5887"
     transform="translate(0,-4.2081055)" /><g
     id="g5889"
     transform="translate(0,-4.2081055)" /><g
     id="g5891"
     transform="translate(0,-4.2081055)" /><g
     id="g5893"
     transform="translate(0,-4.2081055)" /><g
     id="g5895"
     transform="translate(0,-4.2081055)" /><g
     id="g5897"
     transform="translate(0,-4.2081055)" /><g
     id="g5899"
     transform="translate(0,-4.2081055)" /><g
     id="g5901"
     transform="translate(0,-4.2081055)" /><g
     id="g5903"
     transform="translate(0,-4.2081055)" /><g
     id="g5905"
     transform="translate(0,-4.2081055)" /><g
     id="g5907"
     transform="translate(0,-4.2081055)" /><g
     id="g5909"
     transform="translate(0,-4.2081055)" /><path
     inkscape:connector-curvature="0"
     style="fill:#5c6670"
     d="m 307.99003,261.75685 -66.89727,0 c -6.90335,0 -13.02902,4.46698 -15.20053,11.08312 l -9.7125,29.60397 116.72333,0 -9.7125,-29.60397 c -2.17081,-6.61544 -8.29719,-11.08312 -15.20053,-11.08312 z"
     id="path6203" /><path
     inkscape:connector-curvature="0"
     style="opacity:0.15;enable-background:new"
     d="m 330.06548,293.79271 -88.83757,0 c -3.0164,0 -5.1477,-2.98055 -4.19953,-5.87153 l 7.78636,-23.73244 c 0.27863,-0.84819 0.6231,-1.65929 1.02441,-2.43189 l -4.74709,0 c -6.90334,0 -13.02902,4.46698 -15.20052,11.08312 l -9.71251,29.60397 116.72334,0 -2.83689,-8.65123 z"
     id="path6205" /><path
     inkscape:connector-curvature="0"
     style="fill:#333e48"
     d="m 444.16402,510.99931 -328.43002,0 c -7.30118,0 -13.22032,-5.9758 -13.22032,-13.34845 l 0,-181.85777 c 0,-7.37195 5.91844,-13.34845 13.22032,-13.34845 l 328.43071,0 c 7.30119,0 13.22032,5.9758 13.22032,13.34845 l 0,181.85777 c -6.9e-4,7.37265 -5.91913,13.34845 -13.22101,13.34845 z"
     id="path6207" /><path
     inkscape:connector-curvature="0"
     style="opacity:0.15;enable-background:new"
     d="m 130.03418,493.92709 c -7.30119,0 -13.22032,-5.9758 -13.22032,-13.34845 l 0,-178.134 -1.07916,0 c -7.30188,0 -13.22102,5.9758 -13.22102,13.34845 l 0,181.85847 c 0,7.37195 5.91844,13.34845 13.22032,13.34845 l 328.43071,0 c 7.30119,0 13.22032,-5.97581 13.22032,-13.34845 l 0,-3.72447 -327.35085,0 0,0 z"
     id="path6209" /><ellipse
     style="opacity:0.15;enable-background:new"
     cx="270.53177"
     cy="413.86368"
     id="circle6211"
     rx="71.165428"
     ry="71.855171" /><path
     inkscape:connector-curvature="0"
     style="fill:#7d868c"
     d="m 457.38434,362.55886 -23.63702,0 c -8.94662,0 -16.1986,7.32296 -16.1986,16.35559 l 0,51.38951 c 0,9.03332 7.25267,16.35559 16.1986,16.35559 l 23.63702,0 0,-84.10069 z"
     id="path6213" /><path
     inkscape:connector-curvature="0"
     style="fill:#ffb547"
     d="m 186.46208,350.93197 -41.10885,0 c -2.9568,0 -5.35287,-2.41999 -5.35287,-5.40474 l 0,-12.97055 c 0,-2.98545 2.39677,-5.40474 5.35287,-5.40474 l 41.10816,0 c 2.95679,0 5.35286,2.41999 5.35286,5.40474 l 0,12.97055 c 7e-4,2.98545 -2.39607,5.40474 -5.35217,5.40474 z"
     id="path6215" /><path
     inkscape:connector-curvature="0"
     style="fill:#ffffff"
     d="m 176.114,376.69391 -29.04741,0 c -3.25275,0 -5.88795,-2.66143 -5.88795,-5.94501 0,-3.28288 2.6352,-5.94501 5.88795,-5.94501 l 29.04741,0 c 3.25275,0 5.88794,2.66143 5.88794,5.94501 0,3.28288 -2.63589,5.94501 -5.88794,5.94501 z"
     id="path6217" /><path
     inkscape:connector-curvature="0"
     style="fill:#c3c6c8"
     d="m 406.92894,278.79897 -28.89008,0 c -5.86437,0 -10.61978,4.8001 -10.61978,10.72131 l 0,12.92296 50.12825,0 0,-12.92296 c 7e-4,-5.92051 -4.75332,-10.72131 -10.61839,-10.72131 z"
     id="path6219" /><path
     inkscape:connector-curvature="0"
     style="opacity:0.15;enable-background:new"
     d="m 377.07545,297.95387 c -1.64683,0 -2.98244,-1.34857 -2.98244,-3.01135 l 0,-9.91161 c 0,-2.23034 0.67578,-4.30182 1.83049,-6.01779 -4.85105,0.99025 -8.50372,5.31796 -8.50372,10.50856 l 0,12.92296 50.12825,0 0,-4.49077 -40.47258,0 z"
     id="path6221" /><path
     inkscape:connector-curvature="0"
     style="fill:#ffffff"
     d="m 291.3922,288.04575 -33.70092,0 c -3.25275,0 -5.88795,-2.66143 -5.88795,-5.94501 0,-3.28357 2.6352,-5.94501 5.88795,-5.94501 l 33.70092,0 c 3.25275,0 5.88795,2.66144 5.88795,5.94501 0,3.28358 -2.63589,5.94501 -5.88795,5.94501 z"
     id="path6223" /><ellipse
     style="fill:#7d868c"
     cx="279.95248"
     cy="406.72128"
     id="circle6225"
     rx="71.165428"
     ry="71.855171" /><ellipse
     style="fill:#333e48"
     cx="279.95248"
     cy="406.72128"
     id="circle6227"
     rx="42.070194"
     ry="42.477943" /><ellipse
     style="fill:#ffffff"
     cx="294.2485"
     cy="398.34296"
     id="circle6229"
     rx="14.300871"
     ry="14.439477" /><g
     transform="matrix(0.69310674,0,0,0.69982441,102.51368,207.22303)"
     id="g6231" /><g
     transform="matrix(0.69310674,0,0,0.69982441,102.51368,207.22303)"
     id="g6233" /><g
     transform="matrix(0.69310674,0,0,0.69982441,102.51368,207.22303)"
     id="g6235" /><g
     transform="matrix(0.69310674,0,0,0.69982441,102.51368,207.22303)"
     id="g6237" /><g
     transform="matrix(0.69310674,0,0,0.69982441,102.51368,207.22303)"
     id="g6239" /><g
     transform="matrix(0.69310674,0,0,0.69982441,102.51368,207.22303)"
     id="g6241" /><g
     transform="matrix(0.69310674,0,0,0.69982441,102.51368,207.22303)"
     id="g6243" /><g
     transform="matrix(0.69310674,0,0,0.69982441,102.51368,207.22303)"
     id="g6245" /><g
     transform="matrix(0.69310674,0,0,0.69982441,102.51368,207.22303)"
     id="g6247" /><g
     transform="matrix(0.69310674,0,0,0.69982441,102.51368,207.22303)"
     id="g6249" /><g
     transform="matrix(0.69310674,0,0,0.69982441,102.51368,207.22303)"
     id="g6251" /><g
     transform="matrix(0.69310674,0,0,0.69982441,102.51368,207.22303)"
     id="g6253" /><g
     transform="matrix(0.69310674,0,0,0.69982441,102.51368,207.22303)"
     id="g6255" /><g
     transform="matrix(0.69310674,0,0,0.69982441,102.51368,207.22303)"
     id="g6257" /><g
     transform="matrix(0.69310674,0,0,0.69982441,102.51368,207.22303)"
     id="g6259" /></svg>