<?xml version="1.0" encoding="UTF-8" standalone="no"?>
<!-- Generator: Adobe Illustrator 16.0.0, SVG Export Plug-In . SVG Version: 6.00 Build 0)  -->

<svg
   xmlns:dc="http://purl.org/dc/elements/1.1/"
   xmlns:cc="http://creativecommons.org/ns#"
   xmlns:rdf="http://www.w3.org/1999/02/22-rdf-syntax-ns#"
   xmlns:svg="http://www.w3.org/2000/svg"
   xmlns="http://www.w3.org/2000/svg"
   xmlns:sodipodi="http://sodipodi.sourceforge.net/DTD/sodipodi-0.dtd"
   xmlns:inkscape="http://www.inkscape.org/namespaces/inkscape"
   version="1.1"
   id="Capa_1"
   x="0px"
   y="0px"
   width="469.39999"
   height="526"
   viewBox="0 0 469.4 526.00001"
   xml:space="preserve"
   inkscape:version="0.91 r13725"
   sodipodi:docname="chimp9.svg"><metadata
     id="metadata9773"><rdf:RDF><cc:Work
         rdf:about=""><dc:format>image/svg+xml</dc:format><dc:type
           rdf:resource="http://purl.org/dc/dcmitype/StillImage" /><dc:title></dc:title></cc:Work></rdf:RDF></metadata><defs
     id="defs9771" /><sodipodi:namedview
     pagecolor="#ffffff"
     bordercolor="#666666"
     borderopacity="1"
     objecttolerance="10"
     gridtolerance="10"
     guidetolerance="10"
     inkscape:pageopacity="0"
     inkscape:pageshadow="2"
     inkscape:window-width="2560"
     inkscape:window-height="1404"
     id="namedview9769"
     showgrid="false"
     inkscape:zoom="2.011078"
     inkscape:cx="117.84725"
     inkscape:cy="295.52558"
     inkscape:window-x="0"
     inkscape:window-y="36"
     inkscape:window-maximized="1"
     inkscape:current-layer="Capa_1"
     fit-margin-top="0"
     fit-margin-left="0"
     fit-margin-right="0"
     fit-margin-bottom="20" /><g
     id="g9727"
     transform="translate(0,-4.2255615)"><path
       d="m 469.4,218.45 c 0,-33.8 -27.5,-61.4 -61.4,-61.4 -3.3,0 -6.5,0.3 -9.6,0.8 -12.3,-86.8 -81,-153.2 -163.9,-153.2 -82.9,0 -151.6,66.4 -163.9,153.2 -3,-0.5 -6.1,-0.7 -9.2,-0.7 -33.8,0 -61.4,27.5 -61.4,61.4 0,33 26.2,60.1 59,61.3 -2.4,10.2 -3.7,20.601 -3.7,31.2 0,21.199 4.9,41.8 14.7,61.1 9.3,18.4 22.4,34.8 39.1,48.8 33.6,28.2 78.2,43.801 125.3,43.801 47.1,0 91.8,-15.601 125.5,-43.9 16.7,-14 29.899,-30.4 39.1,-48.8 9.7,-19.301 14.7,-39.9 14.7,-61.1 0,-10.601 -1.2,-21 -3.7,-31.201 32.9,-1 59.4,-28.1 59.4,-61.3 z m -76.7,92.501 c 0,4.399 -0.3,8.699 -0.8,13 l -50.4,0 -214,0 -50.4,0 c -0.5,-4.301 -0.8,-8.601 -0.8,-13 0,-12 1.9,-23.601 5.4,-34.601 1.2,-3.601 2.5,-7.101 4,-10.601 8,-18.5 20.8,-35.1 37,-48.699 1.8,-1.5 3.7,-3 5.6,-4.5 -2.8,-4.6 -5.4,-9.4 -7.7,-14.4 -19.3,-43.1 -8.1,-85.1 25,-93.8 4.1,-1.1 8.4,-1.6 12.7,-1.6 27.3,0 57.8,20.7 76.1,51.8 18.3,-31.2 48.8,-51.8 76.1,-51.8 4.3,0 8.601,0.5 12.7,1.6 33.1,8.7 44.3,50.7 25,93.8 -2.3,5 -4.8,9.9 -7.7,14.4 2,1.6 4,3.2 6,4.8 16.101,13.6 28.7,30 36.7,48.399 1.5,3.4 2.8,6.9 3.9,10.5 3.7,11.101 5.6,22.702 5.6,34.702 z m -237.2,34 158.101,0 73.899,0 c -17.899,56.8 -79.6,98.699 -153,98.699 -73.4,0 -135.1,-41.899 -153,-98.699 l 74,0 0,0 z M 61.4,258.85 c -22.3,0 -40.4,-18.101 -40.4,-40.4 0,-22.3 18.1,-40.4 40.4,-40.4 2.5,0 5,0.2 7.4,0.7 -0.1,2.3 -0.1,4.6 -0.1,7 0,6 0.3,11.8 0.8,17.6 -4.3,-2.9 -9.4,-5.2 -15.3,-6.6 -5.6,-1.3 -11.3,2.2 -12.6,7.8 -1.3,5.6 2.2,11.3 7.8,12.6 17.3,4.1 23,24.1 23.1,24.5 0.2,0.801 0.5,1.5 0.8,2.2 -0.5,0.8 -0.9,1.601 -1.4,2.399 -2.2,4.101 -4.2,8.201 -5.9,12.301 -1.5,0.2 -3,0.3 -4.6,0.3 z m 346.6,0 c -1.7,0 -3.3,-0.101 -5,-0.3 -1.8,-4.1 -3.7,-8.2 -5.899,-12.301 -0.7,-1.299 -1.5,-2.6 -2.2,-4 0.1,-0.199 0.1,-0.399 0.2,-0.6 0.1,-0.199 5.699,-20.5 23.1,-24.5 5.6,-1.3 9.1,-7 7.8,-12.6 -1.3,-5.6 -7,-9.1 -12.6,-7.8 -5.2,1.2 -9.8,3.2 -13.8,5.6 0.5,-5.5 0.699,-11 0.699,-16.6 0,-2.3 -0.1,-4.6 -0.1,-6.9 2.5,-0.5 5.1,-0.8 7.8,-0.8 22.3,0 40.4,18.1 40.4,40.4 0,22.301 -18.1,40.401 -40.4,40.401 z"
       id="path9729"
       inkscape:connector-curvature="0" /><path
       d="m 214.5,263.35 c -4.7,-5.5 -13,-6.101 -18.5,-1.399 -5.5,4.699 -6.1,13 -1.4,18.5 l 12.1,14.1 c 2.6,3 6.3,4.6 10,4.6 3,0 6,-1 8.5,-3.1 5.5,-4.7 6.1,-13 1.4,-18.5 L 214.5,263.35 Z"
       id="path9731"
       inkscape:connector-curvature="0" /><path
       d="m 273,261.85 c -5.5,-4.7 -13.8,-4.101 -18.5,1.399 l -12.1,14.101 c -4.7,5.5 -4.1,13.8 1.4,18.5 2.5,2.101 5.5,3.101 8.5,3.101 3.699,0 7.399,-1.601 10,-4.601 l 12.1,-14.101 c 4.8,-5.399 4.1,-13.699 -1.4,-18.399 z"
       id="path9733"
       inkscape:connector-curvature="0" /><circle
       cx="191.2"
       cy="199.25"
       r="21.299999"
       id="circle9735" /><circle
       cx="277.80099"
       cy="199.25"
       r="21.299999"
       id="circle9737" /></g><g
     id="g9739"
     transform="translate(0,-4.2255615)" /><g
     id="g9741"
     transform="translate(0,-4.2255615)" /><g
     id="g9743"
     transform="translate(0,-4.2255615)" /><g
     id="g9745"
     transform="translate(0,-4.2255615)" /><g
     id="g9747"
     transform="translate(0,-4.2255615)" /><g
     id="g9749"
     transform="translate(0,-4.2255615)" /><g
     id="g9751"
     transform="translate(0,-4.2255615)" /><g
     id="g9753"
     transform="translate(0,-4.2255615)" /><g
     id="g9755"
     transform="translate(0,-4.2255615)" /><g
     id="g9757"
     transform="translate(0,-4.2255615)" /><g
     id="g9759"
     transform="translate(0,-4.2255615)" /><g
     id="g9761"
     transform="translate(0,-4.2255615)" /><g
     id="g9763"
     transform="translate(0,-4.2255615)" /><g
     id="g9765"
     transform="translate(0,-4.2255615)" /><g
     id="g9767"
     transform="translate(0,-4.2255615)" /><g
     transform="matrix(0.7184271,0,0,0.68912235,14.271609,250.57816)"
     id="g10741"><rect
       x="42.970001"
       y="94.727997"
       style="fill:#ffde55"
       width="39.580002"
       height="23.75"
       id="rect10743" /><polygon
       style="fill:#f75959"
       points="163.405,90.569 251.605,90.569 252.175,90.569 252.175,118.478 182.345,118.478 162.835,118.478 162.835,90.569 "
       id="polygon10745" /><polygon
       style="fill:#ffde55"
       points="251.605,90.569 163.405,90.569 162.835,90.569 162.835,44.352 252.175,44.352 252.175,90.569 "
       id="polygon10747" /><path
       inkscape:connector-curvature="0"
       style="fill:#d2fcff"
       d="m 207.5,217.188 c 16.06,0 29.08,13.01 29.08,29.07 0,16.06 -13.02,29.07 -29.08,29.07 -16.05,0 -29.07,-13.01 -29.07,-29.07 0,-16.06 13.02,-29.07 29.07,-29.07 z"
       id="path10749" /><path
       inkscape:connector-curvature="0"
       style="fill:#f75959"
       d="m 207.5,193.678 c 29.04,0 52.59,23.54 52.59,52.58 0,29.04 -23.55,52.58 -52.59,52.58 -29.04,0 -52.58,-23.54 -52.58,-52.58 0,-29.04 23.54,-52.58 52.58,-52.58 z m 29.08,52.58 c 0,-16.06 -13.02,-29.07 -29.08,-29.07 -16.05,0 -29.07,13.01 -29.07,29.07 0,16.06 13.02,29.07 29.07,29.07 16.06,0 29.08,-13.01 29.08,-29.07 z"
       id="path10751" /><path
       inkscape:connector-curvature="0"
       style="fill:#ffde55"
       d="m 295.14,118.478 0,126.08 c 0,48.4 -39.24,87.64 -87.64,87.64 -48.39,0 -87.63,-39.24 -87.63,-87.64 l 0,-126.08 155.76,0 19.51,0 z m -35.05,127.78 c 0,-29.04 -23.55,-52.58 -52.59,-52.58 -29.04,0 -52.58,23.54 -52.58,52.58 0,29.04 23.54,52.58 52.58,52.58 29.04,0 52.59,-23.54 52.59,-52.58 z"
       id="path10753" /><path
       inkscape:connector-curvature="0"
       style="fill:#ffde55"
       d="m 415,188.588 0,153.2 c 0,15.94 -12.92,28.86 -28.86,28.86 l -53.68,0 0,-1.13 0,-108.83 c 0,-39.82 32.28,-72.1 72.1,-72.1 l 10.44,0 0,0 z"
       id="path10755" /><path
       inkscape:connector-curvature="0"
       style="fill:#ffde55"
       d="m 82.55,369.518 0,1.13 -53.69,0 C 12.93,370.648 0,357.728 0,341.788 l 0,-153.2 10.45,0 c 39.82,0 72.1,32.28 72.1,72.1 0,0 0,108.83 0,108.83 z"
       id="path10757" /><path
       inkscape:connector-curvature="0"
       style="fill:#f75959"
       d="m 415,147.338 0,41.25 -10.44,0 c -39.82,0 -72.1,32.28 -72.1,72.1 l 0,108.83 0,1.13 -249.91,0 0,-1.13 0,-108.83 c 0,-39.82 -32.28,-72.1 -72.1,-72.1 l -10.45,0 0,-41.25 c 0,-15.94 12.93,-28.86 28.86,-28.86 l 14.11,0 39.58,0 37.32,0 0,126.08 c 0,48.4 39.24,87.64 87.63,87.64 48.4,0 87.64,-39.24 87.64,-87.64 l 0,-126.08 69.83,0 21.17,0 c 15.94,0 28.86,12.92 28.86,28.86 z"
       id="path10759" /><rect
       x="312.62"
       y="140.78799"
       style="fill:#d2fcff"
       width="68"
       height="39"
       id="rect10761" /></g><g
     transform="matrix(0.7184271,0,0,0.68912235,14.271609,250.57816)"
     id="g10763" /><g
     transform="matrix(0.7184271,0,0,0.68912235,14.271609,250.57816)"
     id="g10765" /><g
     transform="matrix(0.7184271,0,0,0.68912235,14.271609,250.57816)"
     id="g10767" /><g
     transform="matrix(0.7184271,0,0,0.68912235,14.271609,250.57816)"
     id="g10769" /><g
     transform="matrix(0.7184271,0,0,0.68912235,14.271609,250.57816)"
     id="g10771" /><g
     transform="matrix(0.7184271,0,0,0.68912235,14.271609,250.57816)"
     id="g10773" /><g
     transform="matrix(0.7184271,0,0,0.68912235,14.271609,250.57816)"
     id="g10775" /><g
     transform="matrix(0.7184271,0,0,0.68912235,14.271609,250.57816)"
     id="g10777" /><g
     transform="matrix(0.7184271,0,0,0.68912235,14.271609,250.57816)"
     id="g10779" /><g
     transform="matrix(0.7184271,0,0,0.68912235,14.271609,250.57816)"
     id="g10781" /><g
     transform="matrix(0.7184271,0,0,0.68912235,14.271609,250.57816)"
     id="g10783" /><g
     transform="matrix(0.7184271,0,0,0.68912235,14.271609,250.57816)"
     id="g10785" /><g
     transform="matrix(0.7184271,0,0,0.68912235,14.271609,250.57816)"
     id="g10787" /><g
     transform="matrix(0.7184271,0,0,0.68912235,14.271609,250.57816)"
     id="g10789" /><g
     transform="matrix(0.7184271,0,0,0.68912235,14.271609,250.57816)"
     id="g10791" /></svg>