<?xml version="1.0" encoding="UTF-8" standalone="no"?>
<!-- Generator: Adobe Illustrator 16.0.0, SVG Export Plug-In . SVG Version: 6.00 Build 0)  -->

<svg
   xmlns:dc="http://purl.org/dc/elements/1.1/"
   xmlns:cc="http://creativecommons.org/ns#"
   xmlns:rdf="http://www.w3.org/1999/02/22-rdf-syntax-ns#"
   xmlns:svg="http://www.w3.org/2000/svg"
   xmlns="http://www.w3.org/2000/svg"
   xmlns:sodipodi="http://sodipodi.sourceforge.net/DTD/sodipodi-0.dtd"
   xmlns:inkscape="http://www.inkscape.org/namespaces/inkscape"
   version="1.1"
   id="Capa_1"
   x="0px"
   y="0px"
   width="469.39999"
   height="526"
   viewBox="0 0 469.4 526.00001"
   xml:space="preserve"
   inkscape:version="0.91 r13725"
   sodipodi:docname="chimp8.svg"><metadata
     id="metadata8673"><rdf:RDF><cc:Work
         rdf:about=""><dc:format>image/svg+xml</dc:format><dc:type
           rdf:resource="http://purl.org/dc/dcmitype/StillImage" /><dc:title /></cc:Work></rdf:RDF></metadata><defs
     id="defs8671" /><sodipodi:namedview
     pagecolor="#ffffff"
     bordercolor="#666666"
     borderopacity="1"
     objecttolerance="10"
     gridtolerance="10"
     guidetolerance="10"
     inkscape:pageopacity="0"
     inkscape:pageshadow="2"
     inkscape:window-width="2560"
     inkscape:window-height="1404"
     id="namedview8669"
     showgrid="false"
     inkscape:zoom="2.011078"
     inkscape:cx="0.9944974"
     inkscape:cy="295.83623"
     inkscape:window-x="0"
     inkscape:window-y="36"
     inkscape:window-maximized="1"
     inkscape:current-layer="Capa_1"
     fit-margin-top="0"
     fit-margin-left="0"
     fit-margin-right="0"
     fit-margin-bottom="8" /><path
     inkscape:connector-curvature="0"
     style="fill:#d19d7d;fill-opacity:1;fill-rule:evenodd;stroke:none;stroke-width:1.35208869px;stroke-linecap:butt;stroke-linejoin:miter;stroke-opacity:1"
     d="M 232.95951,40.614972 A 168.6389,213.39101 0 0 0 78.688031,168.14427 a 47.808182,50.543022 0 0 0 -20.50977,-4.95703 47.808182,50.543022 0 0 0 -47.80859,50.54296 47.808182,50.543022 0 0 0 47.80859,50.54297 47.808182,50.543022 0 0 0 6.41602,-0.51758 168.6389,213.39101 0 0 0 168.365229,203.64258 168.6389,213.39101 0 0 0 168.30859,-205.02343 47.808182,50.543022 0 0 0 2.99219,0.1582 47.808182,50.543022 0 0 0 47.8086,-50.54297 47.808182,50.543022 0 0 0 -47.8086,-50.54297 47.808182,50.543022 0 0 0 -18.15625,3.82813 A 168.6389,213.39101 0 0 0 232.95951,40.614972 Z"
     id="path3395" /><g
     id="g8627"
     transform="translate(0,-4.5362305)"><path
       d="m 469.4,218.45 c 0,-33.8 -27.5,-61.4 -61.4,-61.4 -3.3,0 -6.5,0.3 -9.6,0.8 -12.3,-86.8 -81,-153.2 -163.9,-153.2 -82.9,0 -151.6,66.4 -163.9,153.2 -3,-0.5 -6.1,-0.7 -9.2,-0.7 -33.8,0 -61.4,27.5 -61.4,61.4 0,33 26.2,60.1 59,61.3 -2.4,10.2 -3.7,20.601 -3.7,31.2 0,21.199 4.9,41.8 14.7,61.1 9.3,18.4 22.4,34.8 39.1,48.8 33.6,28.2 78.2,43.801 125.3,43.801 47.1,0 91.8,-15.601 125.5,-43.9 16.7,-14 29.899,-30.4 39.1,-48.8 9.7,-19.301 14.7,-39.9 14.7,-61.1 0,-10.601 -1.2,-21 -3.7,-31.201 32.9,-1 59.4,-28.1 59.4,-61.3 z m -76.7,92.501 c 0,4.399 -0.3,8.699 -0.8,13 l -50.4,0 -214,0 -50.4,0 c -0.5,-4.301 -0.8,-8.601 -0.8,-13 0,-12 1.9,-23.601 5.4,-34.601 1.2,-3.601 2.5,-7.101 4,-10.601 8,-18.5 20.8,-35.1 37,-48.699 1.8,-1.5 3.7,-3 5.6,-4.5 -2.8,-4.6 -5.4,-9.4 -7.7,-14.4 -19.3,-43.1 -8.1,-85.1 25,-93.8 4.1,-1.1 8.4,-1.6 12.7,-1.6 27.3,0 57.8,20.7 76.1,51.8 18.3,-31.2 48.8,-51.8 76.1,-51.8 4.3,0 8.601,0.5 12.7,1.6 33.1,8.7 44.3,50.7 25,93.8 -2.3,5 -4.8,9.9 -7.7,14.4 2,1.6 4,3.2 6,4.8 16.101,13.6 28.7,30 36.7,48.399 1.5,3.4 2.8,6.9 3.9,10.5 3.7,11.101 5.6,22.702 5.6,34.702 z m -237.2,34 158.101,0 73.899,0 c -17.899,56.8 -79.6,98.699 -153,98.699 -73.4,0 -135.1,-41.899 -153,-98.699 l 74,0 0,0 z M 61.4,258.85 c -22.3,0 -40.4,-18.101 -40.4,-40.4 0,-22.3 18.1,-40.4 40.4,-40.4 2.5,0 5,0.2 7.4,0.7 -0.1,2.3 -0.1,4.6 -0.1,7 0,6 0.3,11.8 0.8,17.6 -4.3,-2.9 -9.4,-5.2 -15.3,-6.6 -5.6,-1.3 -11.3,2.2 -12.6,7.8 -1.3,5.6 2.2,11.3 7.8,12.6 17.3,4.1 23,24.1 23.1,24.5 0.2,0.801 0.5,1.5 0.8,2.2 -0.5,0.8 -0.9,1.601 -1.4,2.399 -2.2,4.101 -4.2,8.201 -5.9,12.301 -1.5,0.2 -3,0.3 -4.6,0.3 z m 346.6,0 c -1.7,0 -3.3,-0.101 -5,-0.3 -1.8,-4.1 -3.7,-8.2 -5.899,-12.301 -0.7,-1.299 -1.5,-2.6 -2.2,-4 0.1,-0.199 0.1,-0.399 0.2,-0.6 0.1,-0.199 5.699,-20.5 23.1,-24.5 5.6,-1.3 9.1,-7 7.8,-12.6 -1.3,-5.6 -7,-9.1 -12.6,-7.8 -5.2,1.2 -9.8,3.2 -13.8,5.6 0.5,-5.5 0.699,-11 0.699,-16.6 0,-2.3 -0.1,-4.6 -0.1,-6.9 2.5,-0.5 5.1,-0.8 7.8,-0.8 22.3,0 40.4,18.1 40.4,40.4 0,22.301 -18.1,40.401 -40.4,40.401 z"
       id="path8629"
       inkscape:connector-curvature="0" /><path
       d="m 214.5,263.35 c -4.7,-5.5 -13,-6.101 -18.5,-1.399 -5.5,4.699 -6.1,13 -1.4,18.5 l 12.1,14.1 c 2.6,3 6.3,4.6 10,4.6 3,0 6,-1 8.5,-3.1 5.5,-4.7 6.1,-13 1.4,-18.5 L 214.5,263.35 Z"
       id="path8631"
       inkscape:connector-curvature="0" /><path
       d="m 273,261.85 c -5.5,-4.7 -13.8,-4.101 -18.5,1.399 l -12.1,14.101 c -4.7,5.5 -4.1,13.8 1.4,18.5 2.5,2.101 5.5,3.101 8.5,3.101 3.699,0 7.399,-1.601 10,-4.601 l 12.1,-14.101 c 4.8,-5.399 4.1,-13.699 -1.4,-18.399 z"
       id="path8633"
       inkscape:connector-curvature="0" /><circle
       cx="191.2"
       cy="199.25"
       r="21.299999"
       id="circle8635" /><circle
       cx="277.80099"
       cy="199.25"
       r="21.299999"
       id="circle8637" /></g><g
     id="g8639"
     transform="translate(0,-4.5362305)" /><g
     id="g8641"
     transform="translate(0,-4.5362305)" /><g
     id="g8643"
     transform="translate(0,-4.5362305)" /><g
     id="g8645"
     transform="translate(0,-4.5362305)" /><g
     id="g8647"
     transform="translate(0,-4.5362305)" /><g
     id="g8649"
     transform="translate(0,-4.5362305)" /><g
     id="g8651"
     transform="translate(0,-4.5362305)" /><g
     id="g8653"
     transform="translate(0,-4.5362305)" /><g
     id="g8655"
     transform="translate(0,-4.5362305)" /><g
     id="g8657"
     transform="translate(0,-4.5362305)" /><g
     id="g8659"
     transform="translate(0,-4.5362305)" /><g
     id="g8661"
     transform="translate(0,-4.5362305)" /><g
     id="g8663"
     transform="translate(0,-4.5362305)" /><g
     id="g8665"
     transform="translate(0,-4.5362305)" /><g
     id="g8667"
     transform="translate(0,-4.5362305)" /><g
     transform="matrix(0.85108526,0,0,0.83721121,150.00999,235.02261)"
     id="g9350"><path
       inkscape:connector-curvature="0"
       style="fill:#ffc33b"
       d="m 284.4,58 41.6,0 c 17.6,0 32,14.4 32,32 l 0,208 c 0,17.6 -14.4,32 -32,32 L 22,330 C 4.4,330 -10,315.6 -10,298 L -10,90 C -10,72.4 4.4,58 22,58 l 87.2,0 c 4.4,0 8.8,-2.4 10.8,-6.8 l 16.4,-32.4 c 2.8,-5.6 8.4,-8.8 14.4,-8.8 l 92.8,0 c 6,0 11.6,3.6 14.4,8.8 l 16.4,32.4 c 1.2,4.4 5.6,6.8 10,6.8 l 0,0 z"
       id="path9352" /><rect
       x="-2"
       y="66"
       style="fill:#eeb638"
       width="56"
       height="256"
       id="rect9354" /><path
       inkscape:connector-curvature="0"
       style="fill:#bb8813"
       d="M 326,338 22,338 C 0,338 -18,320 -18,298 L -18,90 C -18,68 0,50 22,50 l 87.2,0 c 1.2,0 2.8,-0.4 3.6,-2 L 129.2,15.2 C 133.2,7.2 141.6,2 150.8,2 l 92.8,0 c 8.8,0 17.2,5.2 21.6,13.2 l 16.4,32.4 c 0.4,0.4 0.4,0.8 0.4,1.6 0,0.4 1.2,0.8 2.4,0.8 l 41.6,0 c 22,0 40,18 40,40 l 0,208 c 0,22 -18,40 -40,40 z M 22,66 C 8.8,66 -2,76.8 -2,90 l 0,208 c 0,13.2 10.8,24 24,24 l 304,0 c 13.2,0 24,-10.8 24,-24 L 350,90 C 350,76.8 339.2,66 326,66 l -41.6,0 c -8,0 -15.2,-4.8 -17.6,-11.6 l -16,-31.6 C 249.6,20 246.4,18 243.6,18 l -92.8,0 c -3.2,0 -6,1.6 -7.2,4.4 l -16.4,32.4 c -3.2,6.8 -10,11.2 -18,11.2 0,0 -87.2,0 -87.2,0 z"
       id="path9356" /><g
       id="g9358"><path
         inkscape:connector-curvature="0"
         style="fill:#bb8814"
         d="m 54,298.4 c -4.4,0 -8,-3.6 -8,-8 L 46,274 c 0,-4.4 3.6,-8 8,-8 4.4,0 8,3.6 8,8 l 0,16.4 c 0,4.4 -3.6,8 -8,8 z"
         id="path9360" /><path
         inkscape:connector-curvature="0"
         style="fill:#bb8814"
         d="m 54,242.4 c -4.4,0 -8,-3.6 -8,-8 L 46,58 c 0,-4.4 3.6,-8 8,-8 4.4,0 8,3.6 8,8 l 0,176.4 c 0,4.4 -3.6,8 -8,8 z"
         id="path9362" /></g><g
       transform="matrix(0.86603,0.5,-0.5,0.86603,43.947,13.947)"
       id="g9364"><circle
         r="87.998001"
         transform="matrix(-0.866,0.5,-0.5,-0.866,445.4128,24.8363)"
         style="fill:#9ce0ff"
         cx="219.379"
         cy="72.092003"
         id="ellipse9366" /><path
         inkscape:connector-curvature="0"
         style="fill:#85d6fb"
         d="m 219.173,-15.889 c 48.8,0 88,39.2 88,88 0,48.8 -39.2,88 -88,88 82,-68.4 48.8,-125.6 0,-176 z"
         id="path9368" /><path
         inkscape:connector-curvature="0"
         style="fill:#4c8bc6"
         d="m 267.173,155.311 c -14,8 -30.4,12.8 -48,12.8 -25.6,0 -49.6,-10 -68,-28 -18,-18 -28,-42.4 -28,-68 0,-52.8 43.2,-96 96,-96 25.6,0 49.6,10 68,28 18.4,18 28,42.4 28,68 0,35.2 -19.2,66.4 -48,83.2 z m -88,-152.8 c -6,3.6 -11.6,7.6 -16.8,12.8 -14.8,15.2 -23.2,35.2 -23.2,56.8 0,21.2 8.4,41.6 23.6,56.4 15.2,15.2 35.2,23.6 56.4,23.6 44,0 80,-36 80,-80 0,-44 -36,-80 -80,-80 -14,0 -28,3.6 -40,10.4 z"
         id="path9370" /></g><g
       id="g9372"><path
         inkscape:connector-curvature="0"
         style="fill:#ffffff"
         d="m 166,148 c -2.4,0 -5.2,-1.2 -6.8,-3.6 -2.4,-3.6 -1.6,-8.8 2.4,-11.2 3.6,-2.4 8.4,-5.2 13.6,-7.2 4,-1.6 8.8,0.8 10.4,4.8 1.6,4 -0.8,8.8 -4.8,10.4 -4,1.6 -7.6,3.6 -10.4,5.6 -1.2,0.8 -2.8,1.2 -4.4,1.2 z"
         id="path9374" /><path
         inkscape:connector-curvature="0"
         style="fill:#ffffff"
         d="m 162,236.8 c -2,0 -3.6,-0.8 -5.2,-2 -14.4,-12 -22.8,-30 -22.8,-48.8 0,-9.2 2,-18.4 6,-27.2 1.6,-4 6.4,-6 10.4,-4 4,1.6 6,6.4 4,10.4 -2.8,6.4 -4.4,14 -4.4,20.8 0,14.4 6,27.2 17.2,36.8 3.2,2.8 4,8 0.8,11.2 -1.6,2 -3.6,2.8 -6,2.8 z"
         id="path9376" /></g></g><g
     transform="matrix(0.85108526,0,0,0.83721121,134.69045,216.60396)"
     id="g9378" /><g
     transform="matrix(0.85108526,0,0,0.83721121,134.69045,216.60396)"
     id="g9380" /><g
     transform="matrix(0.85108526,0,0,0.83721121,134.69045,216.60396)"
     id="g9382" /><g
     transform="matrix(0.85108526,0,0,0.83721121,134.69045,216.60396)"
     id="g9384" /><g
     transform="matrix(0.85108526,0,0,0.83721121,134.69045,216.60396)"
     id="g9386" /><g
     transform="matrix(0.85108526,0,0,0.83721121,134.69045,216.60396)"
     id="g9388" /><g
     transform="matrix(0.85108526,0,0,0.83721121,134.69045,216.60396)"
     id="g9390" /><g
     transform="matrix(0.85108526,0,0,0.83721121,134.69045,216.60396)"
     id="g9392" /><g
     transform="matrix(0.85108526,0,0,0.83721121,134.69045,216.60396)"
     id="g9394" /><g
     transform="matrix(0.85108526,0,0,0.83721121,134.69045,216.60396)"
     id="g9396" /><g
     transform="matrix(0.85108526,0,0,0.83721121,134.69045,216.60396)"
     id="g9398" /><g
     transform="matrix(0.85108526,0,0,0.83721121,134.69045,216.60396)"
     id="g9400" /><g
     transform="matrix(0.85108526,0,0,0.83721121,134.69045,216.60396)"
     id="g9402" /><g
     transform="matrix(0.85108526,0,0,0.83721121,134.69045,216.60396)"
     id="g9404" /><g
     transform="matrix(0.85108526,0,0,0.83721121,134.69045,216.60396)"
     id="g9406" /></svg>