<?xml version="1.0" encoding="UTF-8" standalone="no"?>
<!-- Generator: Adobe Illustrator 16.0.0, SVG Export Plug-In . SVG Version: 6.00 Build 0)  -->

<svg
   xmlns:dc="http://purl.org/dc/elements/1.1/"
   xmlns:cc="http://creativecommons.org/ns#"
   xmlns:rdf="http://www.w3.org/1999/02/22-rdf-syntax-ns#"
   xmlns:svg="http://www.w3.org/2000/svg"
   xmlns="http://www.w3.org/2000/svg"
   xmlns:sodipodi="http://sodipodi.sourceforge.net/DTD/sodipodi-0.dtd"
   xmlns:inkscape="http://www.inkscape.org/namespaces/inkscape"
   version="1.1"
   id="Capa_1"
   x="0px"
   y="0px"
   width="469.39999"
   height="526"
   viewBox="0 0 469.4 526"
   xml:space="preserve"
   inkscape:version="0.91 r13725"
   sodipodi:docname="chimp1.svg"
   inkscape:export-filename="/home/pedrocr/Projects/chimper/icons/chimpandcamera.svg.png"
   inkscape:export-xdpi="90"
   inkscape:export-ydpi="90"><metadata
     id="metadata49"><rdf:RDF><cc:Work
         rdf:about=""><dc:format>image/svg+xml</dc:format><dc:type
           rdf:resource="http://purl.org/dc/dcmitype/StillImage" /><dc:title /></cc:Work></rdf:RDF></metadata><defs
     id="defs47" /><sodipodi:namedview
     pagecolor="#ffffff"
     bordercolor="#666666"
     borderopacity="1"
     objecttolerance="10"
     gridtolerance="10"
     guidetolerance="10"
     inkscape:pageopacity="0"
     inkscape:pageshadow="2"
     inkscape:window-width="2560"
     inkscape:window-height="1404"
     id="namedview45"
     showgrid="false"
     inkscape:zoom="2.011078"
     inkscape:cx="162.23247"
     inkscape:cy="243.92323"
     inkscape:window-x="0"
     inkscape:window-y="36"
     inkscape:window-maximized="1"
     inkscape:current-layer="Capa_1"
     fit-margin-top="0"
     fit-margin-left="0"
     fit-margin-right="0"
     fit-margin-bottom="3" /><path
     style="fill:#d19d7d;fill-rule:evenodd;stroke:none;stroke-width:1.35208869px;stroke-linecap:butt;stroke-linejoin:miter;stroke-opacity:1;fill-opacity:1"
     d="M 236.9375 43.349609 A 168.6389 213.39101 0 0 0 82.666016 170.87891 A 47.808182 50.543022 0 0 0 62.15625 165.92188 A 47.808182 50.543022 0 0 0 14.347656 216.46484 A 47.808182 50.543022 0 0 0 62.15625 267.00781 A 47.808182 50.543022 0 0 0 68.572266 266.49023 A 168.6389 213.39101 0 0 0 236.9375 470.13281 A 168.6389 213.39101 0 0 0 405.24609 265.10938 A 47.808182 50.543022 0 0 0 408.23828 265.26758 A 47.808182 50.543022 0 0 0 456.04688 214.72461 A 47.808182 50.543022 0 0 0 408.23828 164.18164 A 47.808182 50.543022 0 0 0 390.08203 168.00977 A 168.6389 213.39101 0 0 0 236.9375 43.349609 z "
     id="path3395" /><g
     id="g3"
     transform="translate(0,-3.7365479)"><path
       d="m 469.4,218.45 c 0,-33.8 -27.5,-61.4 -61.4,-61.4 -3.3,0 -6.5,0.3 -9.6,0.8 -12.3,-86.8 -81,-153.2 -163.9,-153.2 -82.9,0 -151.6,66.4 -163.9,153.2 -3,-0.5 -6.1,-0.7 -9.2,-0.7 -33.8,0 -61.4,27.5 -61.4,61.4 0,33 26.2,60.1 59,61.3 -2.4,10.2 -3.7,20.601 -3.7,31.2 0,21.199 4.9,41.8 14.7,61.1 9.3,18.4 22.4,34.8 39.1,48.8 33.6,28.2 78.2,43.801 125.3,43.801 47.1,0 91.8,-15.601 125.5,-43.9 16.7,-14 29.899,-30.4 39.1,-48.8 9.7,-19.301 14.7,-39.9 14.7,-61.1 0,-10.601 -1.2,-21 -3.7,-31.201 32.9,-1 59.4,-28.1 59.4,-61.3 z m -76.7,92.501 c 0,4.399 -0.3,8.699 -0.8,13 l -50.4,0 -214,0 -50.4,0 c -0.5,-4.301 -0.8,-8.601 -0.8,-13 0,-12 1.9,-23.601 5.4,-34.601 1.2,-3.601 2.5,-7.101 4,-10.601 8,-18.5 20.8,-35.1 37,-48.699 1.8,-1.5 3.7,-3 5.6,-4.5 -2.8,-4.6 -5.4,-9.4 -7.7,-14.4 -19.3,-43.1 -8.1,-85.1 25,-93.8 4.1,-1.1 8.4,-1.6 12.7,-1.6 27.3,0 57.8,20.7 76.1,51.8 18.3,-31.2 48.8,-51.8 76.1,-51.8 4.3,0 8.601,0.5 12.7,1.6 33.1,8.7 44.3,50.7 25,93.8 -2.3,5 -4.8,9.9 -7.7,14.4 2,1.6 4,3.2 6,4.8 16.101,13.6 28.7,30 36.7,48.399 1.5,3.4 2.8,6.9 3.9,10.5 3.7,11.101 5.6,22.702 5.6,34.702 z m -237.2,34 158.101,0 73.899,0 c -17.899,56.8 -79.6,98.699 -153,98.699 -73.4,0 -135.1,-41.899 -153,-98.699 l 74,0 0,0 z M 61.4,258.85 c -22.3,0 -40.4,-18.101 -40.4,-40.4 0,-22.3 18.1,-40.4 40.4,-40.4 2.5,0 5,0.2 7.4,0.7 -0.1,2.3 -0.1,4.6 -0.1,7 0,6 0.3,11.8 0.8,17.6 -4.3,-2.9 -9.4,-5.2 -15.3,-6.6 -5.6,-1.3 -11.3,2.2 -12.6,7.8 -1.3,5.6 2.2,11.3 7.8,12.6 17.3,4.1 23,24.1 23.1,24.5 0.2,0.801 0.5,1.5 0.8,2.2 -0.5,0.8 -0.9,1.601 -1.4,2.399 -2.2,4.101 -4.2,8.201 -5.9,12.301 -1.5,0.2 -3,0.3 -4.6,0.3 z m 346.6,0 c -1.7,0 -3.3,-0.101 -5,-0.3 -1.8,-4.1 -3.7,-8.2 -5.899,-12.301 -0.7,-1.299 -1.5,-2.6 -2.2,-4 0.1,-0.199 0.1,-0.399 0.2,-0.6 0.1,-0.199 5.699,-20.5 23.1,-24.5 5.6,-1.3 9.1,-7 7.8,-12.6 -1.3,-5.6 -7,-9.1 -12.6,-7.8 -5.2,1.2 -9.8,3.2 -13.8,5.6 0.5,-5.5 0.699,-11 0.699,-16.6 0,-2.3 -0.1,-4.6 -0.1,-6.9 2.5,-0.5 5.1,-0.8 7.8,-0.8 22.3,0 40.4,18.1 40.4,40.4 0,22.301 -18.1,40.401 -40.4,40.401 z"
       id="path5"
       inkscape:connector-curvature="0" /><path
       d="m 214.5,263.35 c -4.7,-5.5 -13,-6.101 -18.5,-1.399 -5.5,4.699 -6.1,13 -1.4,18.5 l 12.1,14.1 c 2.6,3 6.3,4.6 10,4.6 3,0 6,-1 8.5,-3.1 5.5,-4.7 6.1,-13 1.4,-18.5 L 214.5,263.35 Z"
       id="path7"
       inkscape:connector-curvature="0" /><path
       d="m 273,261.85 c -5.5,-4.7 -13.8,-4.101 -18.5,1.399 l -12.1,14.101 c -4.7,5.5 -4.1,13.8 1.4,18.5 2.5,2.101 5.5,3.101 8.5,3.101 3.699,0 7.399,-1.601 10,-4.601 l 12.1,-14.101 c 4.8,-5.399 4.1,-13.699 -1.4,-18.399 z"
       id="path9"
       inkscape:connector-curvature="0" /><circle
       cx="191.2"
       cy="199.25"
       r="21.299999"
       id="circle11" /><circle
       cx="277.80099"
       cy="199.25"
       r="21.299999"
       id="circle13" /></g><g
     id="g15"
     transform="translate(0,-3.7365479)" /><g
     id="g17"
     transform="translate(0,-3.7365479)" /><g
     id="g19"
     transform="translate(0,-3.7365479)" /><g
     id="g21"
     transform="translate(0,-3.7365479)" /><g
     id="g23"
     transform="translate(0,-3.7365479)" /><g
     id="g25"
     transform="translate(0,-3.7365479)" /><g
     id="g27"
     transform="translate(0,-3.7365479)" /><g
     id="g29"
     transform="translate(0,-3.7365479)" /><g
     id="g31"
     transform="translate(0,-3.7365479)" /><g
     id="g33"
     transform="translate(0,-3.7365479)" /><g
     id="g35"
     transform="translate(0,-3.7365479)" /><g
     id="g37"
     transform="translate(0,-3.7365479)" /><g
     id="g39"
     transform="translate(0,-3.7365479)" /><g
     id="g41"
     transform="translate(0,-3.7365479)" /><g
     id="g43"
     transform="translate(0,-3.7365479)" /><g
     transform="matrix(0.72127106,0,0,0.72576996,52.789105,215.47232)"
     id="g5849"><path
       inkscape:connector-curvature="0"
       style="fill:#c7cfe2"
       d="m 150.069,97.103 52.966,0 c 4.875,0 8.828,3.953 8.828,8.828 l 0,17.655 -70.621,0 0,-17.655 c -10e-4,-4.875 3.952,-8.828 8.827,-8.828 z"
       id="path5851" /><path
       inkscape:connector-curvature="0"
       style="fill:#c7cfe2"
       d="m 79.448,88.276 35.31,0 c 4.875,0 8.828,3.953 8.828,8.828 l 0,26.483 -52.965,0 0,-26.484 c 0,-4.875 3.952,-8.827 8.827,-8.827 z"
       id="path5853" /></g><path
     inkscape:connector-curvature="0"
     style="fill:#e4eaf6"
     d="m 415.71253,279.5404 -191.01208,0 c -3.51621,0 -6.36738,2.86896 -6.36738,6.40709 l 0,6.4071 c 0,3.53813 -2.8512,6.4071 -6.36738,6.4071 l -152.809195,0 c -3.516202,0 -6.36739,2.86897 -6.36739,6.40709 l 0,211.4241 c 0,3.53812 2.851188,6.40709 6.36739,6.40709 l 356.556685,0 c 3.51626,0 6.36746,-2.86897 6.36746,-6.40709 l 0,-230.64611 c 0,-3.53814 -2.8519,-6.40637 -6.36811,-6.40637 z"
     id="path5855" /><rect
     x="52.789116"
     y="356.42188"
     style="fill:#ff6464"
     width="369.29077"
     height="153.76309"
     id="rect5857" /><ellipse
     style="fill:#c7cfe2"
     cx="237.43451"
     cy="420.49005"
     id="circle5859"
     rx="76.404961"
     ry="76.881546" /><ellipse
     style="fill:#464655"
     cx="237.43451"
     cy="420.49005"
     id="circle5861"
     rx="63.670925"
     ry="64.068077" /><ellipse
     style="fill:#5b5d6e"
     cx="237.43451"
     cy="420.49005"
     id="circle5863"
     rx="44.569496"
     ry="44.847507" /><path
     inkscape:connector-curvature="0"
     style="fill:#464655"
     d="m 237.43449,407.67653 c -7.02302,0 -12.73404,5.74666 -12.73404,12.81347 0,7.06684 5.71102,12.81349 12.73404,12.81349 7.02302,0 12.73404,-5.74665 12.73404,-12.81349 0,-7.06681 -5.71102,-12.81347 -12.73404,-12.81347 z"
     id="path5865" /><path
     inkscape:connector-curvature="0"
     style="fill:#d7deed"
     d="m 266.08627,375.64251 c -8.77861,0 -15.91774,7.18367 -15.91774,16.01701 0,8.83337 7.13913,16.01701 15.91774,16.01701 8.77859,0 15.91771,-7.18364 15.91771,-16.01701 0,-8.83334 -7.13912,-16.01701 -15.91771,-16.01701 z"
     id="path5867" /><g
     transform="matrix(0.72127106,0,0,0.72576996,52.789105,215.47232)"
     id="g5869"><path
       inkscape:connector-curvature="0"
       style="fill:#ffffff"
       d="m 264.828,260.414 c -7.303,0 -13.241,5.939 -13.241,13.241 0,7.302 5.939,13.241 13.241,13.241 7.302,0 13.241,-5.939 13.241,-13.241 0,-7.302 -5.939,-13.241 -13.241,-13.241 z"
       id="path5871" /><path
       inkscape:connector-curvature="0"
       style="fill:#ffffff"
       d="m 312.32,257.15 c -6.193,-13.743 -17.244,-24.793 -30.987,-30.987 -4.663,4.049 -7.678,9.948 -7.678,16.596 0,12.171 9.898,22.069 22.069,22.069 6.648,0 12.547,-3.015 16.596,-7.678 z"
       id="path5873" /></g><path
     inkscape:connector-curvature="0"
     style="fill:#5b5d6e"
     d="m 339.30753,292.35387 63.67096,0 c 3.51614,0 6.36734,2.86896 6.36734,6.40709 l 0,38.44114 c 0,3.53813 -2.8512,6.40711 -6.36734,6.40711 l -63.67096,0 c -3.51618,0 -6.36739,-2.86898 -6.36739,-6.40711 l 0,-38.44114 c 5.8e-4,-3.53813 2.85121,-6.40709 6.36739,-6.40709 z"
     id="path5875" /><path
     inkscape:connector-curvature="0"
     style="fill:#464655"
     d="m 390.24444,330.795 -38.20285,0 c -3.5162,0 -6.3674,-2.86896 -6.3674,-6.40709 l 0,-12.81348 c 0,-3.53812 2.8512,-6.40709 6.3674,-6.40709 l 38.20285,0 c 3.51615,0 6.3674,2.86897 6.3674,6.40709 l 0,12.81348 c 0,3.53813 -2.85125,6.40709 -6.3674,6.40709 z"
     id="path5877" /><ellipse
     style="fill:#ffffff"
     cx="371.14297"
     cy="317.98077"
     id="circle5879"
     rx="6.3673806"
     ry="6.4070978" /><ellipse
     style="fill:#d7deed"
     cx="393.42813"
     cy="308.37091"
     id="circle5881"
     rx="9.5503502"
     ry="9.6099195" /><path
     inkscape:connector-curvature="0"
     style="fill:#ffffff"
     d="m 390.24444,305.16734 -5.78317,0 c -0.35559,1.00665 -0.58423,2.07424 -0.58423,3.20354 0,5.30756 4.27644,9.60993 9.55037,9.60993 1.12225,0 2.18326,-0.2308 3.18367,-0.58789 l 0,-5.81921 c 0,-3.5374 -2.85049,-6.40637 -6.36664,-6.40637 z"
     id="path5883" /><path
     inkscape:connector-curvature="0"
     style="fill:#5b5d6e"
     d="m 167.3969,337.20137 25.46809,0 c 3.51619,0 6.36737,-2.86895 6.36737,-6.40709 l 0,-12.81347 c 0,-3.53813 -2.85118,-6.4071 -6.36737,-6.4071 l -25.46809,0 c -3.51619,0 -6.36737,2.86897 -6.36737,6.4071 l 0,12.81347 c 0,3.53885 2.85118,6.40709 6.36737,6.40709 z"
     id="path5885" /><ellipse
     style="fill:#959cb3"
     cx="122.82668"
     cy="356.42188"
     id="circle5887"
     rx="19.101419"
     ry="19.220568" /><ellipse
     style="fill:#5b5d6e"
     cx="122.82668"
     cy="356.42188"
     id="circle5889"
     rx="6.3673806"
     ry="6.4070978" /><ellipse
     style="fill:#959cb3"
     cx="141.92812"
     cy="420.49005"
     id="circle5891"
     rx="19.101419"
     ry="19.220568" /><ellipse
     style="fill:#5b5d6e"
     cx="141.92812"
     cy="420.49005"
     id="circle5893"
     rx="6.3673806"
     ry="6.4070978" /><g
     transform="translate(392.40797,659.17266)"
     id="g5895" /><g
     transform="translate(392.40797,659.17266)"
     id="g5897" /><g
     transform="translate(392.40797,659.17266)"
     id="g5899" /><g
     transform="translate(392.40797,659.17266)"
     id="g5901" /><g
     transform="translate(392.40797,659.17266)"
     id="g5903" /><g
     transform="translate(392.40797,659.17266)"
     id="g5905" /><g
     transform="translate(392.40797,659.17266)"
     id="g5907" /><g
     transform="translate(392.40797,659.17266)"
     id="g5909" /><g
     transform="translate(392.40797,659.17266)"
     id="g5911" /><g
     transform="translate(392.40797,659.17266)"
     id="g5913" /><g
     transform="translate(392.40797,659.17266)"
     id="g5915" /><g
     transform="translate(392.40797,659.17266)"
     id="g5917" /><g
     transform="translate(392.40797,659.17266)"
     id="g5919" /><g
     transform="translate(392.40797,659.17266)"
     id="g5921" /><g
     transform="translate(392.40797,659.17266)"
     id="g5923" /></svg>